<?xml version="1.0" standalone="no"?>
<!DOCTYPE svg PUBLIC "-//W3C//DTD SVG 20010904//EN"
 "http://www.w3.org/TR/2001/REC-SVG-20010904/DTD/svg10.dtd">
<svg version="1.0" xmlns="http://www.w3.org/2000/svg"
 width="445.000000pt" height="561.000000pt" viewBox="0 0 445.000000 561.000000"
 preserveAspectRatio="xMidYMid meet">

<g transform="translate(0.000000,561.000000) scale(0.100000,-0.100000)"
fill="#000000" stroke="none">
<path d="M1416 5379 c-21 -17 -26 -29 -26 -67 0 -95 96 -438 133 -475 37 -37
127 10 127 68 0 33 -79 346 -102 403 -21 54 -58 92 -88 92 -10 0 -29 -9 -44
-21z"/>
<path d="M2278 5389 c-26 -15 -36 -38 -74 -172 -58 -204 -84 -319 -74 -336 23
-44 77 -67 116 -49 28 13 39 41 98 248 70 246 70 272 2 304 -39 19 -45 19 -68
5z"/>
<path d="M3025 4683 c-84 -21 -411 -172 -432 -201 -19 -24 -16 -60 8 -93 23
-33 60 -37 119 -15 180 70 356 149 382 173 11 10 18 31 18 53 0 59 -43 95 -95
83z"/>
<path d="M671 4651 c-55 -76 -10 -112 309 -246 153 -65 171 -65 205 -3 40 76
0 108 -282 224 -158 64 -201 69 -232 25z"/>
<path d="M1835 4430 c-38 -4 -83 -12 -98 -19 -58 -23 -118 -74 -154 -129 -69
-107 -67 -75 -71 -919 -2 -420 -5 -763 -7 -763 -2 0 -37 7 -77 15 -268 57
-490 58 -621 3 -50 -21 -134 -82 -169 -123 -93 -108 -123 -313 -65 -435 74
-154 179 -244 396 -339 214 -95 369 -210 481 -361 71 -96 107 -181 155 -362
24 -90 63 -230 88 -313 25 -82 64 -213 87 -290 23 -77 44 -148 47 -157 5 -16
24 -18 207 -18 110 0 482 -3 826 -7 l625 -6 18 109 c10 60 36 222 57 359 58
377 87 534 109 600 41 122 90 255 110 292 52 103 108 326 121 480 11 136 -2
374 -26 493 -40 190 -108 332 -191 395 -50 39 -137 69 -227 80 -51 7 -66 14
-117 59 -167 144 -232 182 -352 208 -48 10 -180 6 -285 -8 -38 -6 -48 -3 -83
25 -65 53 -115 71 -200 71 -71 0 -77 2 -83 23 -3 12 -6 99 -6 192 -1 94 -5
260 -9 370 -8 190 -9 203 -36 260 -18 38 -53 84 -94 126 -55 55 -74 68 -116
77 -73 16 -160 20 -240 12z m159 -189 c21 -5 52 -22 68 -38 60 -57 60 -58 70
-433 5 -190 11 -410 14 -488 6 -140 7 -144 28 -139 11 2 60 12 109 23 74 15
94 16 134 6 45 -12 119 -59 175 -110 l26 -24 84 28 c68 23 100 29 178 29 128
0 172 -22 308 -154 l103 -100 102 -11 c121 -13 174 -36 212 -90 70 -101 111
-346 102 -614 -6 -191 -19 -262 -73 -399 -162 -414 -184 -499 -254 -954 -22
-143 -45 -284 -51 -312 l-11 -51 -673 0 -672 0 -27 92 c-14 51 -49 170 -77
263 -28 94 -68 238 -89 320 -24 94 -53 181 -79 232 -109 221 -317 420 -556
533 -220 104 -253 121 -295 153 -25 19 -61 61 -80 93 -31 51 -35 66 -35 125 0
62 3 72 40 126 32 46 53 64 100 88 59 29 63 30 205 29 163 -1 273 -20 445 -78
100 -34 164 -50 166 -44 1 2 5 397 10 878 4 481 10 889 14 905 4 17 19 45 34
64 42 51 149 74 245 52z"/>
<path d="M1080 3880 c-134 -44 -317 -116 -346 -135 -24 -15 -26 -22 -21 -63 5
-48 33 -82 66 -82 48 0 381 124 442 165 32 21 39 31 39 59 0 44 -33 86 -68 85
-15 0 -65 -13 -112 -29z"/>
<path d="M2557 3899 c-24 -14 -48 -70 -41 -95 3 -11 23 -29 44 -41 74 -43 399
-162 442 -163 25 0 68 57 68 90 0 32 -40 68 -95 88 -16 6 -66 25 -110 42 -130
51 -247 90 -269 90 -12 0 -29 -5 -39 -11z"/>
</g>
</svg>
