<?xml version="1.0" standalone="no"?>
<!DOCTYPE svg PUBLIC "-//W3C//DTD SVG 20010904//EN"
 "http://www.w3.org/TR/2001/REC-SVG-20010904/DTD/svg10.dtd">
<svg version="1.0" xmlns="http://www.w3.org/2000/svg"
 width="452.000000pt" height="452.000000pt" viewBox="0 0 452.000000 452.000000"
 preserveAspectRatio="xMidYMid meet">

<g transform="translate(0.000000,452.000000) scale(0.100000,-0.100000)"
fill="#000000" stroke="none">
<path d="M1494 4415 c-92 -20 -179 -69 -263 -149 -45 -42 -236 -183 -473 -349
-218 -152 -410 -294 -428 -314 -33 -41 -60 -116 -60 -169 0 -48 29 -128 61
-167 16 -19 210 -162 432 -318 l404 -283 293 -567 c172 -333 313 -594 342
-633 60 -80 139 -139 227 -168 63 -21 85 -23 463 -26 l397 -3 3 -467 3 -467
26 -55 c33 -70 89 -126 159 -159 44 -21 70 -26 130 -26 99 1 163 29 229 101
86 94 85 84 89 607 l3 459 64 -61 c82 -79 151 -112 239 -112 88 -1 155 23 215
77 73 66 106 139 106 234 -1 138 -7 146 -403 542 -384 383 -402 397 -522 406
-61 4 -82 -1 -300 -73 -129 -42 -241 -78 -248 -80 -8 -3 -66 104 -161 294
l-150 298 222 189 c295 251 335 290 363 349 39 82 31 177 -21 264 -28 46 -789
617 -859 643 -28 11 -72 39 -97 63 -120 112 -308 159 -485 120z m221 -179 c73
-19 112 -42 167 -97 74 -74 103 -144 103 -249 0 -75 -4 -93 -32 -152 -38 -81
-97 -142 -172 -176 -80 -38 -211 -43 -295 -11 -76 28 -140 87 -178 164 -24 48
-31 77 -35 146 -8 131 22 212 111 301 74 74 214 106 331 74z m776 -522 c163
-122 299 -230 303 -239 13 -36 6 -75 -21 -104 -16 -16 -153 -135 -305 -265
-153 -130 -282 -245 -288 -255 -5 -11 -10 -29 -10 -40 0 -34 374 -786 401
-804 13 -9 35 -17 48 -17 14 0 149 41 301 91 236 79 282 91 316 85 35 -7 77
-45 382 -349 380 -380 379 -378 347 -463 -22 -58 -62 -84 -129 -84 l-50 0
-296 295 c-277 276 -298 295 -332 295 -26 0 -70 -21 -174 -82 -199 -117 -505
-270 -606 -303 -75 -24 -98 -27 -175 -23 -140 7 -213 49 -287 167 -14 21 -156
293 -317 604 l-291 566 -409 286 c-224 157 -417 297 -429 312 -26 33 -26 63 1
97 18 22 597 436 611 436 3 0 6 -24 7 -52 1 -50 6 -90 17 -130 4 -12 -38 -46
-156 -128 -88 -61 -165 -120 -170 -130 -13 -24 -13 -66 0 -90 5 -10 106 -85
222 -167 l213 -148 440 -3 c242 -2 455 0 473 3 23 4 78 44 180 131 81 69 159
139 175 155 31 33 36 82 12 115 -8 12 -89 77 -180 145 -138 103 -165 127 -160
144 3 11 9 57 12 102 4 57 9 80 17 76 6 -4 144 -107 307 -229z m-316 -215 c52
-39 95 -75 95 -79 0 -4 -43 -44 -96 -89 l-95 -81 -398 0 -398 0 -39 26 c-98
67 -224 156 -224 159 0 4 158 115 164 115 2 0 28 -24 58 -52 102 -100 228
-149 383 -149 153 0 279 52 380 156 33 34 63 63 68 64 4 0 50 -31 102 -70z
m1165 -2590 l0 -546 -23 -34 c-60 -90 -207 -66 -237 39 -6 23 -10 224 -10 529
l0 492 -24 28 c-24 28 -26 28 -152 31 l-127 4 99 52 c54 29 137 76 184 104
l85 51 103 -102 102 -102 0 -546z"/>
<path d="M1133 2315 c3 -11 76 -318 161 -682 l156 -662 0 -410 c0 -225 3 -417
6 -426 8 -20 56 -45 88 -45 14 0 38 11 53 24 l28 24 3 381 3 381 449 0 450 0
0 -376 0 -376 29 -29 c40 -39 82 -39 122 0 l29 29 0 442 0 441 -25 24 -24 25
-525 0 -525 0 -10 38 c-5 20 -38 156 -72 302 l-61 265 -156 305 c-85 168 -162
314 -170 325 l-14 20 5 -20z"/>
</g>
</svg>
