<?xml version="1.0" standalone="no"?>
<!DOCTYPE svg PUBLIC "-//W3C//DTD SVG 20010904//EN"
 "http://www.w3.org/TR/2001/REC-SVG-20010904/DTD/svg10.dtd">
<svg version="1.0" xmlns="http://www.w3.org/2000/svg"
 width="128.000000pt" height="128.000000pt" viewBox="0 0 128.000000 128.000000"
 preserveAspectRatio="xMidYMid meet">

<g transform="translate(0.000000,128.000000) scale(0.100000,-0.100000)"
fill="#000000" stroke="none">
<path d="M616 1258 c-54 -83 -176 -306 -176 -320 0 -17 15 -18 200 -18 185 0
200 1 200 18 0 22 -181 334 -197 339 -6 3 -18 -6 -27 -19z m97 -167 c37 -65
67 -121 67 -125 0 -3 -63 -6 -140 -6 -77 0 -140 3 -140 6 0 10 134 244 140
244 3 0 35 -54 73 -119z"/>
<path d="M355 1046 c-101 -67 -178 -164 -217 -274 -26 -75 -34 -205 -18 -282
14 -66 19 -73 40 -60 11 7 12 17 2 60 -45 196 48 416 221 523 29 18 47 35 45
45 -5 25 -20 23 -73 -12z"/>
<path d="M879 1060 c-1 -5 -2 -14 -3 -19 -1 -5 24 -27 54 -50 96 -72 166 -183
191 -300 11 -53 8 -173 -6 -217 -5 -16 -2 -23 14 -27 26 -7 32 10 38 115 6 96
-13 200 -50 273 -37 74 -114 159 -193 213 -37 25 -43 26 -45 12z"/>
<path d="M103 359 c-83 -41 -123 -145 -89 -234 56 -144 248 -166 337 -37 47
69 33 190 -27 243 -60 52 -149 64 -221 28z m156 -37 c120 -61 100 -237 -31
-273 -82 -22 -168 35 -183 121 -6 33 -2 51 17 87 39 76 122 104 197 65z"/>
<path d="M902 193 l3 -188 185 0 185 0 0 185 0 185 -188 3 -187 2 2 -187z
m336 0 l-3 -148 -147 -3 -148 -3 0 151 0 150 150 0 151 0 -3 -147z"/>
<path d="M436 133 c-9 -22 1 -31 47 -44 106 -28 235 -28 324 2 35 11 38 16 24
37 -6 11 -19 11 -68 -2 -82 -22 -188 -20 -262 3 -51 16 -61 17 -65 4z"/>
</g>
</svg>
