<?xml version="1.0" standalone="no"?>
<!DOCTYPE svg PUBLIC "-//W3C//DTD SVG 20010904//EN"
 "http://www.w3.org/TR/2001/REC-SVG-20010904/DTD/svg10.dtd">
<svg version="1.0" xmlns="http://www.w3.org/2000/svg"
 width="840.000000pt" height="859.000000pt" viewBox="0 0 840.000000 859.000000"
 preserveAspectRatio="xMidYMid meet">

<g transform="translate(0.000000,859.000000) scale(0.100000,-0.100000)"
fill="#000000" stroke="none">
<path d="M1530 8190 c-58 -10 -123 -24 -145 -30 -22 -6 -50 -14 -63 -17 -12
-3 -25 -9 -28 -14 -3 -5 -12 -9 -21 -9 -26 0 -163 -69 -231 -116 -35 -24 -65
-44 -67 -44 -16 0 -235 -220 -235 -235 0 -9 -55 -90 -62 -93 -5 -2 -8 -12 -8
-23 0 -10 -4 -19 -10 -19 -5 0 -10 -7 -10 -15 0 -8 -4 -15 -10 -15 -5 0 -10
-6 -10 -14 0 -8 -15 -40 -33 -73 -30 -55 -45 -85 -71 -143 -12 -28 -53 -87
-76 -110 -18 -18 -34 -43 -57 -87 -9 -18 -20 -33 -25 -33 -4 0 -8 -7 -8 -15 0
-8 -4 -15 -10 -15 -5 0 -10 -9 -10 -19 0 -11 -3 -21 -7 -23 -5 -1 -25 -39 -46
-83 -52 -108 -52 -108 -83 -205 -15 -47 -31 -93 -35 -102 -5 -10 -9 -29 -9
-42 0 -14 -4 -28 -10 -31 -5 -3 -10 -25 -10 -49 0 -23 -4 -46 -9 -52 -10 -10
-14 -39 -37 -259 -12 -125 -14 -212 -9 -400 3 -132 11 -271 16 -310 5 -38 12
-103 15 -142 4 -40 11 -73 15 -73 5 0 9 -27 9 -59 0 -33 5 -63 10 -66 6 -3 10
-19 10 -34 0 -16 9 -66 21 -112 22 -90 37 -162 46 -221 3 -21 9 -38 14 -38 5
0 9 -13 9 -29 0 -17 4 -32 9 -35 5 -3 11 -20 14 -38 5 -39 45 -176 58 -200 5
-10 9 -27 9 -37 0 -11 5 -23 10 -26 6 -3 10 -16 10 -29 0 -12 4 -26 8 -31 5
-6 21 -50 37 -100 16 -49 33 -91 37 -93 4 -2 8 -14 8 -26 0 -12 4 -26 8 -31 5
-6 22 -40 37 -77 15 -38 32 -68 37 -68 4 0 8 -9 8 -20 0 -11 5 -20 10 -20 6 0
10 -7 10 -15 0 -8 3 -15 8 -15 4 0 20 -25 37 -55 16 -30 33 -55 37 -55 4 0 8
-9 8 -19 0 -11 4 -21 8 -23 5 -1 35 -41 67 -88 33 -47 62 -87 65 -90 4 -3 15
-20 25 -37 11 -18 23 -33 27 -33 4 0 8 -6 8 -13 0 -7 9 -23 20 -35 19 -20 20
-35 20 -416 0 -216 4 -438 9 -492 6 -55 13 -150 16 -213 4 -62 9 -119 11 -125
6 -16 24 -142 31 -218 2 -32 9 -58 14 -58 5 0 9 -12 9 -27 0 -15 4 -40 10 -57
12 -41 51 -193 57 -229 3 -15 9 -30 14 -33 5 -3 9 -14 9 -25 0 -10 4 -27 10
-37 5 -9 16 -37 24 -62 27 -81 42 -120 49 -126 4 -4 7 -16 7 -26 0 -10 5 -18
10 -18 6 0 10 -6 10 -14 0 -8 16 -42 35 -76 19 -34 35 -68 35 -76 0 -8 5 -14
10 -14 6 0 10 -5 10 -10 0 -12 47 -86 72 -114 10 -11 18 -26 18 -33 0 -7 5
-13 10 -13 6 0 10 -5 10 -10 0 -6 11 -22 25 -36 14 -14 25 -28 25 -32 0 -12
151 -163 196 -196 21 -17 41 -32 44 -35 3 -4 17 -12 33 -20 15 -8 27 -18 27
-23 0 -4 7 -8 15 -8 8 0 15 -3 15 -7 0 -5 29 -21 65 -38 36 -16 65 -33 65 -37
0 -5 9 -8 20 -8 11 0 28 -4 38 -9 40 -21 146 -47 297 -71 117 -19 378 -2 547
36 40 9 90 19 111 21 20 3 40 9 43 14 3 5 20 9 39 9 19 0 37 5 40 10 3 6 15
10 27 10 21 0 170 45 200 61 10 5 27 9 38 9 11 0 20 5 20 10 0 6 11 10 25 10
14 0 33 4 43 9 37 20 144 61 158 61 8 0 14 5 14 10 0 6 9 10 20 10 11 0 28 4
38 10 33 19 135 60 148 60 8 0 14 5 14 10 0 6 11 10 25 10 14 0 25 5 25 10 0
6 9 10 20 10 11 0 20 5 20 10 0 6 6 10 14 10 12 0 69 25 138 61 10 5 24 9 32
9 8 0 16 3 18 8 4 10 150 82 166 82 6 0 12 5 12 10 0 6 9 10 19 10 11 0 21 3
23 8 4 9 49 36 108 64 25 12 47 26 48 30 2 4 12 8 23 8 10 0 19 4 19 8 0 4 20
16 45 26 25 11 45 23 45 28 0 4 9 8 20 8 11 0 20 5 20 10 0 6 7 10 15 10 8 0
15 5 15 10 0 6 9 10 19 10 11 0 21 3 23 8 4 9 76 51 101 59 9 3 17 9 17 14 0
5 4 9 10 9 5 0 34 16 64 35 30 19 58 35 61 35 3 0 25 -21 50 -47 38 -40 50
-46 82 -45 20 1 41 6 47 12 5 5 20 10 33 10 13 0 23 5 23 10 0 6 8 10 18 10
10 0 22 4 27 9 6 4 22 11 38 15 20 5 27 3 27 -8 0 -8 4 -16 8 -18 5 -2 12 -14
15 -28 5 -21 0 -29 -28 -47 -62 -41 -79 -110 -43 -176 16 -30 70 -57 115 -57
59 0 195 34 256 64 28 14 55 26 59 26 5 0 14 5 21 10 45 38 54 48 70 72 23 36
22 52 -8 103 -34 58 -79 79 -137 65 -64 -14 -66 -14 -89 36 -25 51 -21 59 39
70 17 3 32 10 32 15 0 5 11 9 24 9 14 0 28 5 31 10 3 5 17 10 31 10 13 0 24 5
24 10 0 12 67 14 72 2 5 -13 104 -82 117 -82 6 0 11 -4 11 -8 0 -5 19 -18 43
-30 36 -18 72 -31 233 -82 17 -6 46 -10 65 -10 19 0 40 -5 45 -10 7 -7 92 -9
250 -6 262 5 374 13 389 27 5 5 27 9 48 9 22 0 56 4 76 10 20 5 70 16 111 25
41 9 86 20 100 25 14 4 45 13 70 20 120 33 271 94 278 112 2 4 8 8 13 8 6 0
35 16 65 35 30 19 58 35 63 35 5 0 11 4 13 8 1 4 35 30 73 57 39 28 79 57 89
65 38 30 162 156 201 205 22 28 43 52 48 53 4 2 7 10 7 17 0 7 4 15 8 17 13 5
82 127 82 144 0 7 5 14 10 14 6 0 10 9 10 20 0 11 4 20 9 20 5 0 11 12 14 27
2 16 14 66 26 112 19 70 21 103 18 210 -2 69 -9 147 -15 172 -13 53 -52 139
-64 139 -4 0 -8 5 -8 11 0 37 -166 202 -232 232 -16 6 -28 15 -28 19 0 5 -7 8
-15 8 -8 0 -15 3 -15 8 0 4 -19 13 -42 20 -24 8 -56 20 -73 27 -30 13 -66 21
-140 32 -22 3 -44 9 -49 14 -14 13 -413 12 -421 -1 -3 -5 -34 -10 -69 -10 -34
0 -66 -4 -71 -9 -6 -5 -28 -11 -50 -14 -63 -9 -147 -26 -175 -36 -14 -5 -45
-14 -70 -21 -25 -6 -53 -16 -62 -21 -10 -5 -26 -9 -36 -9 -10 0 -22 -4 -27 -8
-6 -5 -30 -14 -55 -22 -47 -14 -110 -40 -225 -96 -39 -19 -76 -34 -83 -34 -6
0 -12 -3 -12 -8 0 -4 -12 -13 -27 -19 -16 -7 -41 -24 -57 -38 -16 -14 -32 -25
-35 -25 -3 0 -22 -14 -41 -30 -19 -16 -39 -30 -44 -30 -5 0 -16 -8 -25 -18 -9
-9 -50 -46 -91 -82 -90 -78 -88 -76 -121 -120 -15 -19 -36 -45 -48 -57 -12
-12 -21 -26 -21 -32 0 -5 -4 -11 -9 -13 -10 -4 -75 -104 -111 -174 -33 -61
-80 -203 -80 -238 0 -14 -4 -28 -10 -31 -5 -3 -10 -16 -10 -29 0 -18 -10 -26
-52 -40 -29 -11 -71 -27 -92 -37 -22 -11 -48 -19 -58 -19 -10 0 -18 -4 -18
-10 0 -5 -11 -10 -25 -10 -14 0 -25 -4 -25 -10 0 -5 -6 -10 -14 -10 -8 0 -43
-12 -78 -26 -35 -14 -73 -30 -85 -35 -13 -5 -34 -13 -48 -19 -14 -5 -35 -14
-47 -19 -13 -5 -39 -16 -60 -25 -20 -9 -39 -16 -44 -16 -4 0 -24 -7 -45 -17
-29 -12 -39 -23 -43 -48 -4 -18 -4 -40 0 -48 7 -18 -56 -63 -132 -94 -24 -10
-44 -21 -44 -25 0 -5 -9 -8 -19 -8 -11 0 -21 -3 -23 -7 -1 -5 -25 -20 -53 -34
-187 -97 -271 -142 -280 -150 -5 -5 -17 -9 -27 -9 -10 0 -18 -4 -18 -10 0 -5
-9 -10 -20 -10 -11 0 -20 -3 -20 -7 0 -5 -10 -13 -23 -19 -58 -28 -132 -70
-135 -76 -2 -5 -9 -8 -15 -8 -15 0 -161 -73 -165 -82 -2 -5 -12 -8 -23 -8 -10
0 -19 -4 -19 -10 0 -5 -9 -10 -20 -10 -11 0 -20 -4 -20 -10 0 -5 -4 -10 -10
-10 -15 0 -125 -53 -128 -62 -2 -4 -12 -8 -23 -8 -10 0 -19 -4 -19 -10 0 -5
-11 -10 -25 -10 -14 0 -25 -4 -25 -10 0 -5 -8 -10 -17 -10 -10 0 -27 -7 -37
-15 -11 -8 -28 -15 -38 -15 -10 0 -18 -4 -18 -10 0 -5 -9 -10 -20 -10 -11 0
-20 -4 -20 -10 0 -5 -11 -10 -24 -10 -13 0 -26 -3 -28 -8 -1 -4 -41 -20 -88
-35 -47 -16 -93 -33 -102 -38 -10 -5 -27 -9 -37 -9 -11 0 -23 -5 -26 -10 -3
-6 -22 -10 -41 -10 -19 0 -34 -4 -34 -8 0 -4 -37 -16 -82 -25 -46 -10 -99 -22
-119 -27 -20 -6 -50 -10 -67 -10 -17 0 -34 -4 -37 -10 -3 -5 -37 -10 -75 -10
-38 0 -72 -4 -75 -10 -8 -13 -252 -13 -260 0 -3 5 -33 10 -66 10 -33 0 -59 4
-59 10 0 6 -14 10 -31 10 -45 0 -216 57 -239 80 -3 3 -25 16 -50 29 -25 13
-52 30 -61 37 -8 8 -19 14 -23 14 -11 0 -216 205 -216 216 0 5 -14 25 -30 44
-17 19 -33 43 -36 53 -3 9 -10 17 -15 17 -5 0 -9 9 -9 20 0 11 -4 20 -8 20 -5
0 -14 16 -22 35 -8 19 -17 35 -22 35 -4 0 -8 6 -8 14 0 8 -11 34 -25 57 -14
24 -25 54 -25 67 0 12 -4 22 -10 22 -5 0 -10 11 -10 24 0 14 -4 27 -9 30 -5 3
-11 16 -14 28 -3 13 -17 61 -32 108 -15 47 -31 108 -36 135 -11 71 -19 107
-29 130 -5 11 -11 38 -13 60 -3 22 -14 98 -26 169 -11 71 -21 146 -21 167 0
21 -4 41 -10 44 -5 3 -10 46 -10 94 0 48 -4 101 -9 117 -5 16 -12 88 -14 161
-4 109 -2 131 9 126 10 -4 14 -24 14 -72 0 -37 4 -71 9 -76 5 -6 12 -37 14
-70 5 -60 12 -97 42 -230 9 -38 19 -89 22 -112 3 -24 10 -43 14 -43 5 0 9 -16
9 -35 0 -19 5 -35 10 -35 6 0 10 -11 10 -25 0 -14 4 -33 9 -43 5 -9 18 -47 28
-84 10 -38 21 -68 25 -68 5 0 8 -11 8 -24 0 -14 5 -28 10 -31 6 -3 10 -17 10
-31 0 -13 5 -24 10 -24 6 0 10 -7 10 -15 0 -8 4 -23 9 -33 5 -9 35 -68 66
-131 31 -62 67 -131 81 -152 13 -21 24 -43 24 -49 0 -5 5 -10 10 -10 6 0 10
-7 10 -15 0 -8 4 -15 9 -15 5 0 12 -8 16 -19 3 -10 19 -33 35 -50 17 -17 30
-35 30 -40 0 -12 130 -142 177 -178 21 -15 47 -36 57 -45 11 -10 28 -20 38
-24 10 -3 18 -9 18 -14 0 -5 16 -14 35 -21 19 -7 35 -17 35 -21 0 -4 9 -8 19
-8 11 0 21 -4 23 -8 4 -10 115 -62 133 -62 7 0 17 -4 20 -10 3 -5 19 -10 36
-10 16 0 29 -4 29 -9 0 -9 20 -13 155 -31 90 -11 263 -11 340 1 33 5 77 12 98
15 20 4 40 10 43 15 3 5 16 9 30 9 13 0 32 4 42 9 9 4 33 14 52 20 83 29 125
47 128 54 2 4 12 7 23 7 10 0 19 4 19 8 0 4 20 16 45 26 25 11 45 22 45 25 0
3 13 12 28 19 16 6 37 20 48 30 10 9 37 30 59 47 47 35 87 69 129 110 60 58
199 210 214 235 9 14 23 32 32 40 8 8 29 33 45 55 16 22 34 45 40 51 5 6 19
23 30 38 11 15 30 39 42 53 12 14 27 38 35 52 7 14 23 36 36 49 12 13 22 26
22 30 0 4 14 23 30 42 16 19 30 41 30 48 0 6 5 12 10 12 6 0 10 6 10 14 0 8 3
16 8 18 9 4 62 85 62 96 0 4 9 14 20 22 11 8 20 18 20 22 0 8 48 87 60 98 3 3
12 19 20 35 8 17 17 32 20 35 13 13 60 91 60 100 0 5 5 10 10 10 6 0 10 4 10
9 0 8 60 114 77 136 4 6 15 24 23 40 8 17 18 32 21 35 3 3 18 29 34 57 21 40
34 53 51 53 13 0 26 -4 29 -10 10 -15 75 -12 75 3 0 17 110 240 122 248 12 8
57 -1 64 -12 3 -5 16 -9 29 -9 13 0 26 -4 29 -9 9 -14 176 -39 176 -26 0 14
-24 50 -44 67 -12 10 -15 17 -8 18 14 0 17 40 2 40 -5 0 -10 7 -10 15 0 26 17
17 71 -36 l51 -50 42 44 c79 84 141 158 141 170 0 12 -8 15 -110 42 -33 9 -68
21 -77 26 -10 5 -26 9 -37 9 -11 0 -21 3 -23 8 -4 10 -75 42 -93 42 -8 0 -15
5 -15 10 0 6 -9 10 -20 10 -11 0 -20 5 -20 10 0 6 -7 10 -15 10 -8 0 -15 5
-15 10 0 6 -9 10 -19 10 -11 0 -21 3 -23 8 -4 9 -74 62 -83 62 -3 0 -21 15
-39 33 -43 41 -89 77 -98 77 -5 0 -8 9 -8 21 0 18 5 15 38 -18 40 -40 57 -52
110 -79 17 -9 32 -20 32 -25 0 -5 7 -9 15 -9 8 0 15 -4 15 -10 0 -5 9 -10 20
-10 11 0 20 -4 20 -9 0 -5 16 -12 35 -15 19 -4 35 -11 35 -16 0 -6 9 -10 20
-10 11 0 20 -3 20 -7 0 -11 50 -33 72 -33 10 0 18 -4 18 -10 0 -5 9 -10 20
-10 11 0 20 -4 20 -10 0 -5 14 -10 31 -10 32 0 99 -26 112 -44 4 -7 11 -6 18
4 8 11 12 12 16 3 2 -7 16 -13 29 -13 13 0 24 -4 24 -10 0 -5 20 -10 44 -10
25 0 48 -5 52 -11 4 -8 9 -7 15 2 8 12 11 11 19 -1 9 -13 11 -13 21 0 8 11 12
12 16 3 3 -10 52 -13 193 -13 141 0 190 3 193 13 4 9 8 9 15 -2 7 -9 19 -12
38 -7 16 4 44 10 62 13 18 3 35 9 38 14 3 5 23 9 45 9 21 0 39 5 39 10 0 6 11
10 24 10 14 0 27 4 31 9 3 5 19 12 35 16 17 4 30 11 30 16 0 5 9 9 20 9 11 0
20 5 20 10 0 6 11 10 23 10 13 0 32 9 42 20 10 11 24 20 32 20 7 0 13 5 13 10
0 6 8 10 19 10 10 0 24 7 31 15 7 8 18 15 24 15 6 0 18 9 26 20 8 11 20 20 27
20 8 0 28 15 46 32 17 18 44 39 59 47 15 8 31 23 34 34 4 12 28 42 54 67 26
25 51 56 54 68 4 12 12 22 17 22 5 0 9 7 9 16 0 9 8 24 18 33 10 9 26 34 35
56 10 22 22 48 27 57 6 10 10 27 10 38 0 11 5 20 10 20 6 0 10 9 10 20 0 11 4
28 9 38 15 29 61 176 61 195 0 9 5 17 10 17 6 0 10 15 10 34 0 19 4 38 10 41
6 3 10 22 10 41 0 19 4 34 9 34 5 0 12 91 15 203 3 111 9 266 12 345 4 100 3
142 -5 142 -6 0 -11 14 -11 30 0 17 -3 30 -7 30 -11 0 -33 50 -33 72 0 10 -4
18 -10 18 -5 0 -12 16 -16 35 -3 19 -10 35 -15 35 -5 0 -9 8 -9 18 0 22 -22
72 -32 72 -5 0 -8 9 -8 20 0 11 -4 20 -10 20 -5 0 -10 6 -10 14 0 7 -7 19 -15
26 -8 7 -15 20 -15 29 0 9 -9 23 -20 31 -11 8 -20 19 -20 26 0 6 -9 19 -20 29
-11 10 -20 23 -20 29 0 12 -226 236 -238 236 -5 0 -19 11 -32 25 -13 14 -28
25 -35 25 -6 0 -17 9 -25 20 -8 11 -21 20 -30 20 -9 0 -22 9 -30 20 -8 11 -29
23 -47 26 -18 3 -33 10 -33 15 0 5 -9 9 -20 9 -11 0 -20 5 -20 10 0 6 -7 10
-15 10 -8 0 -15 5 -15 10 0 6 -19 10 -43 10 -24 0 -47 4 -52 9 -9 8 -123 23
-192 25 -13 1 -23 4 -23 9 0 4 -20 7 -44 7 -27 0 -46 5 -49 13 -3 9 -7 9 -20
-2 -11 -9 -17 -10 -17 -2 0 6 -18 11 -44 11 -26 0 -47 5 -50 13 -5 10 -7 10
-12 0 -4 -9 -28 -13 -69 -13 -41 0 -65 4 -68 13 -4 9 -7 9 -14 0 -5 -7 -42
-13 -96 -15 -48 -2 -87 -6 -87 -10 0 -5 -29 -8 -65 -8 -36 0 -65 -4 -65 -9 0
-5 -23 -12 -51 -16 -33 -5 -54 -13 -62 -26 -6 -10 -20 -19 -29 -19 -10 0 -18
-4 -18 -10 0 -5 -9 -10 -20 -10 -11 0 -20 -4 -20 -9 0 -5 -15 -13 -32 -17 -18
-3 -40 -15 -49 -25 -9 -11 -19 -19 -23 -19 -4 0 -21 -13 -39 -30 -18 -16 -37
-30 -44 -30 -6 0 -20 -11 -31 -25 -11 -14 -25 -25 -32 -25 -7 0 -25 -13 -40
-30 -15 -16 -33 -30 -39 -30 -6 0 -33 -22 -60 -50 -27 -27 -56 -50 -65 -50 -9
0 -16 -7 -16 -16 0 -8 -20 -35 -45 -60 -25 -24 -45 -50 -45 -57 0 -7 -9 -19
-20 -27 -11 -8 -20 -22 -20 -32 0 -10 -3 -18 -8 -18 -8 0 -42 -73 -42 -90 0
-6 -4 -10 -10 -10 -5 0 -10 -9 -10 -20 0 -11 -4 -20 -10 -20 -5 0 -10 -9 -10
-20 0 -11 -4 -20 -10 -20 -5 0 -10 -11 -10 -25 0 -14 -4 -25 -9 -25 -6 0 -13
-20 -17 -45 -3 -25 -10 -45 -15 -45 -5 0 -9 -27 -9 -59 0 -33 -4 -63 -10 -66
-6 -4 -10 -135 -10 -361 0 -229 4 -354 10 -354 6 0 10 -24 10 -54 0 -30 4 -57
9 -60 5 -3 12 -32 16 -63 7 -60 24 -113 37 -113 5 0 8 -9 8 -20 0 -11 5 -20
10 -20 6 0 10 -9 10 -20 0 -11 4 -20 9 -20 5 0 12 -13 16 -29 3 -16 15 -37 26
-47 10 -9 19 -23 19 -31 0 -7 5 -13 10 -13 6 0 10 -7 10 -15 0 -9 10 -26 23
-39 12 -13 35 -39 51 -59 15 -21 33 -37 38 -37 9 0 48 -38 48 -46 0 -2 -7 -1
-15 2 -8 4 -15 10 -15 15 0 17 -28 9 -43 -13 -9 -13 -45 -54 -81 -93 -36 -38
-66 -76 -66 -83 0 -7 -11 -18 -25 -24 -23 -10 -36 -48 -17 -48 5 0 14 -12 21
-26 16 -36 46 -75 104 -134 26 -27 47 -52 47 -56 0 -4 -11 -22 -25 -40 -14
-18 -25 -37 -25 -42 0 -6 -4 -12 -8 -14 -4 -1 -21 -25 -37 -53 -16 -27 -36
-58 -46 -68 -26 -29 -29 -54 -8 -78 10 -12 19 -25 19 -28 0 -8 -31 -54 -41
-61 -3 -3 -23 -32 -44 -65 -21 -33 -47 -67 -57 -76 -10 -9 -18 -19 -18 -23 0
-9 -73 -110 -82 -114 -5 -2 -8 -8 -8 -13 0 -6 -5 -15 -10 -22 -39 -47 -50 -62
-55 -78 -4 -11 -11 -19 -16 -19 -5 0 -9 -6 -9 -14 0 -8 -4 -16 -8 -18 -5 -1
-41 -50 -82 -108 -40 -58 -75 -107 -79 -110 -3 -3 -12 -17 -20 -33 -8 -15 -18
-27 -23 -27 -4 0 -8 -5 -8 -11 0 -6 -6 -17 -12 -24 -30 -33 -38 -45 -38 -55 0
-5 -4 -10 -8 -10 -5 0 -15 -12 -23 -27 -8 -16 -22 -37 -32 -48 -10 -11 -26
-32 -35 -47 -9 -16 -20 -28 -24 -28 -4 0 -8 -7 -8 -15 0 -8 -4 -15 -8 -15 -5
0 -15 -12 -23 -27 -8 -16 -18 -33 -24 -40 -5 -7 -16 -19 -22 -27 -7 -8 -13
-18 -13 -22 0 -4 -8 -14 -18 -23 -10 -9 -31 -34 -48 -56 -38 -52 -188 -202
-239 -240 -22 -16 -42 -33 -45 -36 -3 -3 -30 -22 -60 -42 -30 -20 -59 -40 -65
-45 -37 -27 -209 -102 -236 -102 -11 0 -19 -4 -19 -9 0 -9 -6 -10 -140 -33
-110 -18 -332 -10 -346 13 -3 5 -23 9 -45 9 -21 0 -39 5 -39 10 0 6 -8 10 -17
10 -35 0 -163 50 -163 62 0 5 -5 8 -10 8 -10 0 -90 49 -100 61 -3 3 -16 12
-29 19 -38 20 -146 121 -204 191 -15 19 -38 47 -51 63 -13 16 -30 41 -38 55
-7 14 -20 34 -29 44 -9 10 -25 35 -35 57 -10 22 -22 40 -26 40 -5 0 -8 9 -8
20 0 11 -3 20 -8 20 -4 0 -13 15 -21 33 -8 17 -30 66 -49 107 -40 88 -42 93
-76 185 -14 39 -26 80 -26 92 0 12 -5 25 -10 28 -6 3 -10 19 -10 36 0 16 -4
29 -10 29 -5 0 -10 14 -10 30 0 17 -4 38 -9 48 -19 35 -68 306 -77 430 -4 39
-10 72 -15 72 -5 0 -9 5 -9 10 0 23 35 7 83 -39 29 -27 72 -67 96 -88 24 -21
56 -49 71 -63 15 -14 43 -37 61 -52 19 -14 44 -35 56 -45 45 -38 60 -49 128
-93 39 -25 96 -59 127 -75 32 -17 58 -33 58 -37 0 -5 11 -8 25 -8 14 0 25 -4
25 -10 0 -5 8 -10 18 -10 10 0 22 -4 28 -8 30 -26 169 -52 314 -58 73 -4 116
0 185 16 127 29 139 32 145 39 3 3 23 12 45 20 45 16 112 57 136 83 9 10 20
18 24 18 11 0 145 137 145 148 0 6 3 12 8 14 23 10 119 180 157 278 9 25 21
53 26 62 5 10 9 27 9 37 0 11 4 22 9 25 5 3 11 18 14 33 4 16 11 51 17 78 36
163 70 506 70 716 0 3 24 10 53 14 105 15 227 37 257 47 8 3 56 18 105 34 50
16 92 32 93 37 2 4 15 7 28 7 13 0 24 5 24 10 0 6 6 10 14 10 17 0 150 70 154
82 2 4 12 8 23 8 10 0 19 5 19 10 0 6 4 10 9 10 5 0 37 17 71 38 l60 37 -6 40
c-3 22 -10 44 -15 50 -5 5 -9 21 -9 36 0 15 -4 31 -10 34 -5 3 -10 26 -10 51
0 24 -4 44 -9 44 -21 0 -31 309 -16 473 4 48 12 87 16 87 5 0 9 15 9 34 0 19
4 38 10 41 6 3 10 16 10 28 0 25 33 133 43 143 4 4 7 15 7 24 0 21 108 234
121 238 5 2 9 12 9 23 0 10 5 19 10 19 6 0 10 5 10 11 0 6 6 16 13 24 6 7 21
25 32 40 11 16 31 41 45 56 73 81 90 100 90 105 0 7 27 34 34 34 5 0 56 44
102 88 13 12 26 22 29 22 3 0 16 9 28 21 12 11 37 27 55 36 17 8 32 19 32 24
0 5 6 9 14 9 8 0 16 3 18 8 4 9 151 82 166 82 7 0 12 5 12 10 0 6 9 10 19 10
11 0 23 5 26 10 3 6 17 10 30 10 13 0 26 4 30 9 3 6 26 13 50 17 25 3 48 10
51 15 3 5 18 9 34 9 16 0 32 5 35 10 3 6 28 10 55 10 27 0 52 5 55 10 4 6 88
10 221 10 136 0 214 -4 214 -10 0 -5 24 -10 54 -10 30 0 58 -4 61 -10 3 -5 16
-10 27 -10 23 0 161 -44 190 -60 10 -6 27 -10 38 -10 11 0 20 -4 20 -10 0 -5
6 -10 13 -10 17 0 121 -51 125 -62 2 -4 12 -8 23 -8 10 0 19 -4 19 -10 0 -5 6
-10 14 -10 8 0 16 -3 18 -8 2 -4 30 -25 63 -47 33 -21 67 -46 75 -55 40 -42
114 -94 117 -82 3 6 13 12 23 12 10 0 22 5 25 10 3 6 15 10 26 10 10 0 19 4
19 9 0 5 13 11 30 14 16 4 49 16 72 27 23 11 50 20 59 20 10 0 19 3 21 8 3 7
51 26 165 67 35 12 66 24 70 28 3 4 15 7 25 7 10 0 18 5 18 10 0 6 11 10 25
10 14 0 25 4 25 9 0 5 8 11 17 13 13 2 8 9 -20 26 -21 12 -42 22 -48 22 -5 0
-9 5 -9 10 0 6 -6 10 -14 10 -8 0 -16 3 -18 8 -1 4 -26 22 -54 40 -28 18 -64
44 -80 57 -16 14 -32 25 -35 25 -3 0 -15 8 -27 18 -54 46 -63 52 -72 52 -6 0
-10 5 -10 10 0 6 -4 10 -10 10 -9 0 -42 25 -76 58 -7 6 -16 12 -20 12 -3 0
-14 8 -23 18 -9 10 -29 26 -45 36 -16 10 -39 27 -50 38 -12 10 -50 41 -86 69
-36 27 -72 55 -80 62 -9 7 -33 25 -55 41 -22 17 -47 38 -56 48 -9 10 -19 18
-23 18 -4 0 -18 10 -31 23 -37 34 -54 47 -61 47 -4 0 -14 8 -23 18 -9 9 -34
30 -56 47 -22 16 -47 37 -56 47 -9 10 -20 18 -25 18 -5 0 -25 15 -44 33 -19
18 -51 44 -70 57 -19 13 -49 35 -66 49 -64 53 -74 61 -80 61 -3 0 -15 10 -28
23 -13 12 -36 31 -51 42 -16 11 -33 25 -39 30 -6 6 -29 23 -51 40 -22 16 -46
35 -53 42 -7 7 -17 13 -21 13 -4 0 -18 8 -30 19 -12 10 -37 29 -56 42 -19 13
-35 27 -35 32 0 4 -7 7 -15 7 -8 0 -15 4 -15 9 0 5 -8 12 -19 16 -16 5 -31 16
-78 55 -7 5 -16 10 -20 10 -5 0 -15 9 -23 20 -8 11 -22 20 -31 20 -10 0 -19 3
-21 8 -4 10 -86 62 -98 62 -5 0 -10 3 -10 8 0 4 -12 13 -27 19 -16 7 -55 24
-88 39 -51 22 -70 25 -125 21 -73 -5 -180 -23 -225 -37 -132 -41 -218 -74
-287 -111 -10 -5 -24 -9 -32 -9 -8 0 -16 -4 -18 -8 -1 -4 -29 -21 -61 -37 -32
-17 -67 -34 -78 -40 -10 -5 -19 -13 -19 -17 0 -5 -9 -8 -20 -8 -11 0 -20 -4
-20 -8 0 -5 -25 -22 -55 -37 -30 -16 -55 -33 -55 -37 0 -4 -7 -8 -15 -8 -8 0
-15 -4 -15 -10 0 -5 -6 -10 -12 -10 -7 0 -29 -14 -48 -30 -19 -16 -38 -30 -41
-30 -3 0 -19 -11 -35 -25 -16 -14 -34 -25 -41 -25 -6 0 -13 -3 -15 -7 -4 -11
-75 -63 -85 -63 -5 0 -29 17 -54 38 -26 20 -65 51 -88 67 -24 17 -53 40 -66
53 -13 12 -29 22 -35 22 -5 0 -10 3 -10 8 0 4 -27 25 -60 47 -33 22 -60 43
-60 48 0 4 -7 7 -15 7 -8 0 -15 4 -15 9 0 5 -8 12 -18 15 -10 4 -27 14 -38 24
-10 9 -46 35 -79 57 -33 22 -66 45 -72 52 -7 6 -22 15 -33 18 -11 3 -20 11
-20 16 0 5 -6 9 -14 9 -8 0 -16 3 -18 8 -4 10 -86 62 -98 62 -5 0 -10 4 -10 8
0 5 -12 15 -27 23 -16 8 -30 16 -33 19 -6 6 -33 23 -92 56 -27 15 -48 31 -48
36 0 4 -9 8 -20 8 -11 0 -20 3 -20 8 0 10 -58 42 -76 42 -8 0 -14 5 -14 10 0
6 -7 10 -15 10 -8 0 -15 5 -15 10 0 6 -9 10 -20 10 -11 0 -20 5 -20 10 0 6 -6
10 -12 10 -11 0 -79 30 -140 61 -10 5 -24 9 -32 9 -8 0 -16 3 -18 8 -3 6 -41
22 -128 53 -19 6 -44 15 -55 19 -59 21 -94 30 -118 30 -15 0 -27 4 -27 9 0 4
-19 11 -42 14 -24 3 -83 13 -133 22 -142 26 -369 28 -495 5z m525 -282 c27 -5
67 -12 88 -15 20 -3 40 -9 43 -14 3 -5 18 -9 35 -9 16 0 29 -4 29 -10 0 -5 14
-10 30 -10 17 0 30 -4 30 -9 0 -5 12 -11 28 -14 29 -5 94 -28 152 -54 19 -8
44 -19 55 -23 11 -5 63 -29 116 -54 52 -25 101 -46 107 -46 7 0 12 -4 12 -10
0 -5 9 -10 20 -10 11 0 20 -4 20 -8 0 -5 20 -17 45 -28 25 -10 45 -22 45 -26
0 -4 9 -8 20 -8 11 0 20 -4 20 -8 0 -5 16 -14 35 -22 19 -8 35 -17 35 -20 0
-3 19 -15 43 -25 23 -10 49 -27 58 -37 9 -10 24 -18 33 -18 9 0 16 -4 16 -9 0
-5 6 -11 13 -13 19 -5 250 -160 268 -180 9 -10 19 -18 23 -18 11 0 93 -62 205
-155 61 -51 63 -53 52 -72 -10 -20 -57 -63 -69 -63 -4 0 -33 -25 -64 -55 -32
-30 -60 -55 -63 -55 -6 0 -58 -46 -101 -87 -13 -13 -28 -23 -34 -23 -5 0 -10
-4 -10 -10 0 -18 -35 -11 -50 10 -8 11 -19 20 -25 20 -5 0 -38 26 -71 58 -34
31 -77 69 -95 84 -19 14 -44 35 -56 45 -12 11 -34 28 -48 39 -15 10 -39 30
-54 44 -16 14 -40 34 -56 45 -15 11 -33 26 -40 33 -8 6 -18 12 -24 12 -6 0
-11 4 -11 8 0 5 -12 15 -27 23 -16 8 -30 16 -33 19 -3 3 -24 18 -47 33 -24 15
-43 32 -43 37 0 6 -9 10 -19 10 -11 0 -21 4 -23 8 -4 11 -115 82 -128 82 -6 0
-10 4 -10 8 0 5 -12 15 -27 23 -16 8 -30 16 -33 19 -13 13 -91 60 -100 60 -5
0 -10 5 -10 10 0 6 -7 10 -15 10 -8 0 -15 5 -15 10 0 6 -9 10 -19 10 -11 0
-21 3 -23 8 -4 10 -115 62 -133 62 -8 0 -15 5 -15 10 0 6 -8 10 -18 10 -10 0
-22 4 -27 8 -6 4 -50 21 -100 36 -49 16 -99 32 -110 36 -11 5 -38 11 -60 15
-22 4 -60 11 -85 16 -154 33 -416 42 -555 19 -126 -21 -135 -22 -135 -15 0 8
83 84 92 85 4 0 16 7 27 16 27 24 160 94 177 94 8 0 14 5 14 10 0 6 13 10 28
10 15 0 32 4 37 8 47 42 467 62 630 30z m-460 -448 c3 -5 22 -10 42 -10 20 0
54 -5 77 -11 22 -6 59 -15 81 -21 67 -18 189 -58 207 -68 10 -6 25 -10 33 -10
8 0 15 -4 15 -10 0 -5 8 -10 18 -10 9 0 49 -19 87 -41 39 -22 78 -42 88 -45 9
-4 17 -10 17 -15 0 -5 4 -9 10 -9 14 0 122 -70 141 -92 9 -10 20 -18 23 -18
13 0 36 -29 28 -34 -5 -3 -80 -6 -168 -7 -87 -1 -188 -6 -224 -11 -36 -5 -85
-11 -110 -14 -25 -3 -49 -10 -55 -15 -5 -5 -24 -9 -41 -9 -18 0 -36 -4 -39
-10 -3 -5 -16 -10 -27 -10 -19 0 -139 -37 -193 -59 -85 -35 -252 -118 -265
-131 -3 -3 -18 -12 -35 -20 -16 -8 -51 -30 -76 -47 -26 -18 -50 -33 -54 -33
-4 0 -15 -8 -24 -18 -9 -10 -29 -27 -46 -38 -40 -26 -94 -74 -190 -169 -109
-109 -146 -151 -191 -221 -22 -32 -44 -65 -51 -71 -6 -7 -29 -47 -50 -88 -54
-106 -63 -100 -63 43 1 198 18 391 50 567 6 33 14 78 17 100 3 22 9 44 14 50
5 5 9 24 9 41 0 18 4 35 9 38 4 3 11 22 14 41 8 52 50 179 59 183 4 2 8 13 8
24 0 20 32 55 85 93 15 11 33 26 40 33 8 6 18 12 24 12 6 0 11 5 11 10 0 6 9
10 20 10 11 0 20 3 20 8 0 4 12 13 28 19 15 7 53 24 85 38 32 14 69 25 82 25
14 0 25 5 25 10 0 6 24 10 54 10 30 0 58 5 61 10 4 6 68 10 160 10 92 0 156
-4 160 -10z m3468 -622 c4 -10 8 -9 17 2 9 12 13 12 17 2 4 -10 8 -10 21 0 12
11 16 11 20 -1 4 -11 6 -11 13 0 8 12 11 11 19 -1 9 -13 11 -13 20 0 9 13 11
13 20 0 6 -10 10 -11 10 -2 0 6 7 12 15 12 8 0 15 -6 16 -12 0 -10 2 -10 6 0
9 22 25 13 18 -10 -5 -19 -4 -20 5 -8 9 12 13 12 17 2 4 -10 8 -10 19 -1 11 9
18 7 34 -11 11 -13 20 -18 20 -12 0 7 5 12 10 12 6 0 10 -7 10 -15 0 -9 8 -14
22 -12 14 1 26 -6 34 -21 8 -16 13 -19 16 -11 3 9 13 5 32 -14 28 -28 28 -29
8 -45 -20 -16 -20 -16 10 -44 17 -16 28 -31 24 -35 -3 -3 -14 1 -24 10 -23 21
-43 22 -36 2 4 -8 1 -15 -5 -15 -6 0 -11 6 -12 13 0 10 -2 10 -6 0 -7 -18 -38
-16 -53 2 -7 8 -18 15 -24 14 -7 0 -6 -2 2 -6 24 -10 11 -23 -23 -23 -28 0
-35 -4 -35 -20 0 -11 -5 -20 -11 -20 -7 0 -9 11 -5 31 5 27 4 28 -9 15 -8 -8
-15 -22 -15 -30 0 -25 -20 -19 -21 7 -1 19 -2 19 -6 3 -5 -20 -27 -46 -38 -46
-4 0 -4 15 0 33 5 24 4 28 -4 17 -10 -13 -12 -13 -20 0 -6 8 -13 11 -18 7 -4
-5 -1 -12 7 -17 8 -5 11 -12 7 -16 -4 -4 -16 3 -27 16 l-20 23 0 -22 c0 -32
-24 -21 -31 15 l-7 29 -1 -32 c-1 -32 -21 -48 -21 -17 0 8 -7 23 -16 32 -15
15 -16 14 -10 -6 5 -16 3 -22 -7 -22 -9 0 -18 -6 -21 -12 -3 -9 -12 -5 -26 11
-19 22 -24 23 -42 12 -17 -11 -22 -10 -29 1 -7 10 -9 10 -9 1 0 -7 -4 -13 -10
-13 -5 0 -9 10 -7 23 1 16 -3 22 -18 23 -40 2 -45 4 -45 19 0 8 5 15 10 15 6
0 10 5 10 11 0 7 10 21 23 32 l22 19 -22 -6 c-14 -5 -23 -3 -23 3 0 6 5 11 10
11 6 0 10 9 10 20 0 21 16 28 22 9 2 -7 9 -5 17 5 9 11 10 16 2 16 -6 0 -11 5
-11 10 0 16 22 12 35 -7 11 -15 15 -15 29 -4 9 7 16 20 16 27 0 8 5 14 10 14
6 0 10 -5 10 -12 0 -7 8 -2 18 10 20 25 28 27 35 10z m-93 -38 c0 -5 -4 -10
-10 -10 -5 0 -10 5 -10 10 0 6 5 10 10 10 6 0 10 -4 10 -10z m-120 -75 c9 -11
8 -19 -7 -39 -19 -27 -29 -31 -38 -17 -3 5 5 17 17 26 15 12 19 19 11 22 -15
5 -18 23 -4 23 5 0 14 -7 21 -15z m-60 -56 c0 -5 -4 -9 -10 -9 -5 0 -10 7 -10
16 0 8 5 12 10 9 6 -3 10 -10 10 -16z m750 0 c0 -5 -4 -9 -10 -9 -5 0 -10 7
-10 16 0 8 5 12 10 9 6 -3 10 -10 10 -16z m-710 -29 c0 -5 -7 -10 -16 -10 -8
0 -12 5 -9 10 3 6 10 10 16 10 5 0 9 -4 9 -10z m70 -16 c0 -3 -7 -12 -15 -21
-20 -19 -32 -10 -14 11 14 15 29 21 29 10z m-50 -24 c0 -5 -7 -10 -15 -10 -8
0 -15 5 -15 10 0 6 7 10 15 10 8 0 15 -4 15 -10z m560 0 c0 -5 -4 -10 -10 -10
-5 0 -10 5 -10 10 0 6 5 10 10 10 6 0 10 -4 10 -10z m-40 -20 c0 -5 -4 -10
-10 -10 -5 0 -10 5 -10 10 0 6 5 10 10 10 6 0 10 -4 10 -10z m-450 -21 c0 -5
-4 -9 -10 -9 -5 0 -10 7 -10 16 0 8 5 12 10 9 6 -3 10 -10 10 -16z m46 -6
c-10 -10 -19 5 -10 18 6 11 8 11 12 0 2 -7 1 -15 -2 -18z m90 0 c-10 -10 -19
5 -10 18 6 11 8 11 12 0 2 -7 1 -15 -2 -18z m-2418 -135 c2 -4 12 -8 21 -8 10
0 31 -6 47 -14 16 -7 44 -20 62 -27 17 -8 32 -17 32 -21 0 -5 9 -8 20 -8 11 0
20 -4 20 -10 0 -5 9 -10 20 -10 11 0 20 -4 20 -10 0 -5 7 -10 15 -10 8 0 15
-4 15 -9 0 -5 15 -12 33 -15 28 -5 77 -44 77 -61 0 -3 -20 -5 -45 -5 -25 0
-45 -4 -45 -9 0 -4 -19 -11 -42 -13 -60 -7 -204 -51 -260 -79 -10 -5 -25 -9
-33 -9 -8 0 -15 -4 -15 -10 0 -5 -11 -10 -25 -10 -14 0 -25 -4 -25 -10 0 -5
-7 -10 -15 -10 -20 0 -115 -51 -115 -62 0 -4 -9 -8 -20 -8 -11 0 -20 -4 -20
-10 0 -5 -4 -10 -10 -10 -11 0 -113 -71 -118 -82 -2 -5 -10 -8 -17 -8 -7 0
-15 -3 -17 -7 -1 -5 -25 -26 -53 -48 -48 -39 -117 -109 -123 -126 -2 -4 14
-25 35 -47 21 -22 81 -85 133 -142 52 -56 115 -121 139 -146 42 -42 71 -56 71
-34 0 11 137 150 148 150 4 0 18 10 32 23 14 12 37 28 52 36 15 8 37 22 47 33
11 10 24 18 30 18 5 0 29 11 52 25 24 14 52 25 62 25 9 0 17 5 17 10 0 6 9 10
19 10 11 0 23 5 26 10 3 6 15 10 26 10 10 0 19 4 19 9 0 4 15 11 33 15 17 3
57 13 87 22 30 9 70 19 88 21 18 3 35 9 38 14 3 5 23 9 45 9 21 0 48 5 59 12
10 7 22 10 25 7 9 -10 -14 -59 -28 -59 -7 0 -30 -16 -50 -35 -20 -19 -41 -35
-45 -35 -4 0 -14 -9 -22 -20 -8 -11 -22 -20 -32 -20 -10 0 -18 -4 -18 -9 0 -5
-15 -13 -32 -17 -18 -3 -40 -14 -48 -24 -8 -9 -30 -23 -47 -31 -18 -7 -33 -17
-33 -20 0 -4 -15 -10 -33 -13 -18 -3 -39 -15 -47 -26 -8 -11 -22 -20 -32 -20
-10 0 -18 -4 -18 -10 0 -5 -6 -10 -13 -10 -8 0 -22 -9 -32 -20 -10 -11 -22
-20 -28 -20 -17 0 -82 -34 -98 -52 -9 -10 -24 -18 -33 -18 -9 0 -16 -3 -16 -8
0 -9 -74 -42 -95 -42 -8 0 -15 -4 -15 -10 0 -5 -16 -10 -35 -10 -19 0 -35 -4
-35 -10 0 -5 -9 -10 -19 -10 -11 0 -22 -6 -25 -12 -5 -10 -7 -10 -12 0 -3 6
-22 12 -42 11 -20 0 -31 -3 -24 -6 14 -5 17 -33 3 -33 -5 0 -12 6 -14 13 -4 9
-8 9 -15 -2 -7 -10 -11 -10 -17 -1 -4 7 -1 16 6 21 11 7 10 9 -3 9 -10 0 -18
-4 -18 -10 0 -5 -5 -10 -11 -10 -6 0 -9 9 -6 20 3 13 0 20 -8 20 -7 0 -15 6
-18 13 -2 6 -8 8 -13 4 -5 -4 -2 -12 6 -17 8 -5 11 -12 7 -16 -4 -4 -16 3 -27
16 -11 13 -20 18 -20 12 0 -23 -30 -12 -36 13 -6 25 -19 33 -26 16 -1 -5 -12
-3 -22 4 -16 12 -17 17 -6 30 10 13 9 15 -9 15 -14 0 -21 6 -21 20 0 11 -6 20
-13 20 -8 0 -24 9 -37 20 -18 16 -21 23 -12 32 9 9 12 9 12 0 0 -7 5 -12 10
-12 6 0 10 7 10 15 0 8 -7 15 -16 15 -18 0 -44 23 -44 39 0 6 -6 8 -14 5 -11
-4 -13 5 -11 41 l3 46 -19 -22 c-10 -12 -22 -19 -27 -14 -4 4 -1 10 6 12 20 8
15 35 -7 28 -10 -3 -24 1 -31 10 -17 20 -5 32 15 15 12 -10 15 -10 15 4 0 9
-7 16 -16 16 -27 0 -54 39 -48 69 4 19 3 22 -4 12 -8 -11 -15 -9 -36 12 -31
31 -33 41 -6 32 14 -5 20 -2 20 9 0 11 -9 16 -30 16 -35 0 -40 17 -7 23 19 4
19 4 -5 6 -29 1 -45 16 -28 26 5 3 10 14 9 23 0 11 -3 12 -6 5 -8 -21 -25 -14
-18 7 4 13 1 22 -9 26 -17 7 -22 34 -6 34 6 0 10 7 10 15 0 8 -4 15 -10 15 -5
0 -10 5 -10 10 0 6 7 10 15 10 8 0 15 5 15 10 0 6 -7 10 -15 10 -8 0 -15 6
-15 14 0 8 -6 16 -12 19 -7 2 -10 8 -6 12 4 4 19 -5 33 -19 14 -14 28 -26 31
-26 3 0 31 26 62 58 32 31 75 68 95 82 20 14 37 28 37 33 0 4 7 7 15 7 8 0 15
4 15 8 0 12 259 140 298 148 17 4 32 10 32 15 0 5 9 9 19 9 11 0 23 5 26 10 3
6 24 10 46 10 21 0 39 4 39 8 0 4 28 14 63 21 34 7 67 14 72 16 18 5 100 -8
103 -17z m-2288 -413 c5 -11 11 -58 14 -105 6 -100 20 -211 42 -335 8 -49 18
-108 21 -130 3 -22 9 -44 14 -49 5 -6 9 -23 9 -40 0 -16 4 -43 10 -60 5 -17
21 -80 35 -141 14 -60 30 -118 35 -127 6 -10 10 -29 10 -42 0 -14 5 -28 10
-31 6 -3 10 -17 10 -31 0 -13 4 -32 9 -42 5 -9 22 -57 37 -107 15 -49 31 -94
36 -100 4 -5 8 -17 8 -27 0 -18 4 -28 28 -75 7 -13 12 -30 12 -38 0 -8 11 -38
25 -67 14 -28 25 -60 25 -70 0 -10 5 -18 10 -18 6 0 10 -9 10 -20 0 -11 5 -20
10 -20 6 0 10 -7 10 -15 0 -8 4 -23 9 -33 5 -9 18 -38 28 -64 10 -27 21 -48
26 -48 4 0 7 -6 7 -13 0 -8 20 -53 45 -101 32 -62 43 -95 39 -112 -3 -13 -9
-56 -12 -95 -4 -43 -12 -74 -19 -76 -7 -3 -22 16 -35 41 -12 25 -26 46 -30 46
-4 0 -8 7 -8 15 0 8 -4 15 -10 15 -5 0 -10 9 -10 20 0 11 -4 20 -8 20 -4 0
-16 20 -26 45 -11 25 -23 45 -28 45 -4 0 -8 9 -8 19 0 11 -3 21 -7 23 -10 4
-83 151 -83 166 0 7 -4 12 -10 12 -5 0 -10 9 -10 19 0 11 -3 21 -7 23 -8 3
-32 51 -67 131 -9 21 -16 46 -16 57 0 10 -4 22 -10 25 -5 3 -10 17 -10 31 0
13 -4 24 -9 24 -5 0 -11 17 -14 38 -3 20 -10 55 -17 77 -21 71 -42 169 -47
218 -3 26 -9 47 -14 47 -5 0 -9 19 -9 43 0 24 -4 47 -9 52 -9 10 -13 31 -30
165 -5 41 -14 104 -20 140 -6 36 -11 100 -11 143 0 44 -4 77 -10 77 -12 0 -14
592 -2 604 4 4 8 -23 10 -61 1 -37 6 -77 12 -88z m5655 -233 c99 -17 214 -46
255 -64 14 -6 34 -14 45 -18 50 -18 215 -103 215 -111 0 -5 5 -9 11 -9 11 0
78 -45 130 -87 37 -30 169 -161 169 -168 0 -3 11 -17 25 -31 14 -14 25 -28 25
-33 0 -4 8 -16 18 -27 28 -32 101 -168 122 -229 4 -11 12 -31 18 -45 6 -14 13
-36 15 -50 3 -14 13 -52 21 -85 23 -83 31 -318 17 -430 -7 -49 -14 -110 -16
-134 -2 -24 -9 -49 -14 -54 -6 -6 -11 -19 -11 -29 0 -10 -4 -18 -10 -18 -5 0
-10 -8 -10 -19 0 -23 -90 -201 -102 -201 -4 0 -8 -5 -8 -11 0 -6 -8 -21 -17
-34 -10 -12 -25 -33 -33 -45 -8 -13 -25 -33 -37 -46 -13 -13 -23 -25 -23 -28
0 -6 -139 -146 -145 -146 -3 0 -17 -10 -30 -22 -40 -38 -54 -48 -65 -48 -5 0
-10 -4 -10 -8 0 -5 -12 -15 -27 -23 -16 -8 -30 -17 -33 -20 -9 -12 -103 -59
-116 -59 -8 0 -14 -4 -14 -10 0 -5 -8 -10 -17 -10 -10 0 -26 -7 -36 -14 -10
-8 -50 -24 -90 -36 -40 -12 -80 -26 -89 -31 -10 -5 -31 -9 -48 -9 -16 0 -30
-4 -30 -9 0 -11 -155 -26 -280 -25 -126 0 -260 14 -260 25 0 5 -20 9 -44 9
-25 0 -48 5 -51 10 -3 6 -13 10 -21 10 -16 0 -135 43 -166 61 -10 5 -25 9 -33
9 -8 0 -15 3 -15 8 0 4 -18 15 -41 25 -22 10 -50 26 -62 37 -11 11 -27 20 -34
20 -7 0 -13 5 -13 10 0 6 -7 10 -15 10 -8 0 -15 4 -15 9 0 5 -9 13 -21 16 -22
7 -279 260 -279 275 0 5 -11 20 -25 34 -14 14 -25 31 -25 38 0 7 -11 26 -25
42 -14 16 -30 44 -37 62 -7 19 -16 34 -20 34 -4 0 -8 7 -8 15 0 8 -8 29 -18
47 -51 94 -82 254 -84 438 -1 58 20 221 37 290 9 36 18 77 22 93 3 15 9 27 14
27 5 0 9 8 9 18 0 28 104 232 123 240 4 2 7 8 7 14 0 5 6 15 13 23 6 7 21 25
32 41 29 41 182 194 194 194 5 0 11 4 13 8 4 13 103 82 116 82 6 0 12 4 14 8
4 12 137 82 154 82 8 0 14 5 14 10 0 6 11 10 25 10 14 0 25 5 25 10 0 6 11 10
24 10 14 0 27 4 30 9 3 5 18 11 33 14 16 3 63 15 107 26 43 12 95 21 115 21
20 0 43 5 51 10 18 12 280 6 365 -8z m-5355 -119 c0 -7 5 -13 10 -13 6 0 10
-6 10 -14 0 -8 3 -16 8 -18 4 -1 23 -27 41 -56 19 -30 39 -59 45 -65 6 -7 29
-39 51 -72 22 -33 44 -65 50 -71 5 -6 21 -27 35 -47 14 -20 28 -37 33 -37 4 0
7 -5 7 -10 0 -6 9 -20 20 -32 11 -12 20 -28 20 -35 0 -7 4 -13 9 -13 5 0 27
-24 48 -52 21 -29 53 -69 71 -88 37 -39 38 -60 7 -160 -23 -74 -36 -128 -42
-172 -3 -21 -9 -38 -13 -38 -4 0 -10 -17 -13 -37 -6 -43 -34 -177 -42 -204 -9
-29 -18 -23 -44 29 -21 43 -29 60 -52 117 -22 55 -42 102 -50 117 -5 10 -9 29
-9 43 0 14 -4 25 -10 25 -5 0 -10 8 -10 18 0 10 -4 22 -8 27 -5 6 -21 51 -36
100 -15 50 -32 98 -37 107 -5 10 -9 29 -9 42 0 14 -4 27 -9 30 -5 3 -11 18
-14 33 -3 16 -17 75 -32 133 -15 58 -30 126 -32 153 -3 26 -9 47 -14 47 -5 0
-9 20 -9 44 0 25 -4 48 -10 51 -5 3 -10 25 -10 48 0 23 -5 59 -11 80 -5 20 -7
42 -4 48 8 11 55 -39 55 -58z m1694 -444 c-3 -5 -10 -7 -15 -3 -5 3 -7 10 -3
15 3 5 10 7 15 3 5 -3 7 -10 3 -15z m-847 -604 c48 -47 102 -98 121 -113 19
-15 47 -38 62 -52 78 -71 100 -90 105 -90 3 0 19 -13 37 -30 17 -16 35 -30 39
-30 4 0 19 -11 33 -25 14 -14 28 -25 31 -25 3 0 11 -5 18 -10 47 -39 62 -50
78 -55 11 -4 19 -11 19 -16 0 -5 5 -9 10 -9 6 0 19 -8 30 -17 10 -10 36 -27
57 -38 21 -11 40 -22 43 -25 15 -15 237 -128 295 -150 30 -11 123 -37 185 -50
30 -7 63 -16 72 -21 10 -5 30 -9 45 -9 14 0 40 -4 57 -9 17 -6 70 -15 119 -22
60 -8 87 -16 87 -26 0 -7 -4 -13 -10 -13 -5 0 -10 -7 -10 -16 0 -21 -84 -193
-127 -261 -18 -29 -33 -56 -33 -60 0 -5 -9 -15 -20 -23 -11 -8 -20 -18 -20
-22 0 -21 -166 -188 -186 -188 -4 0 -14 -8 -23 -17 -20 -22 -125 -73 -149 -73
-10 0 -23 -5 -29 -11 -15 -15 -296 -15 -301 0 -2 6 -14 11 -28 11 -13 0 -49
11 -80 25 -31 14 -63 25 -70 25 -8 0 -14 4 -14 8 0 5 -16 14 -35 22 -19 8 -35
16 -35 19 0 3 -18 15 -40 25 -22 10 -48 27 -59 37 -11 11 -23 19 -26 19 -3 0
-17 10 -30 23 -62 56 -75 67 -80 67 -17 0 -197 201 -203 227 -2 7 -7 13 -10
13 -4 0 -16 16 -26 35 -11 19 -23 35 -28 35 -4 0 -8 7 -8 15 0 9 -9 26 -21 38
-20 21 -21 29 -15 132 3 61 9 168 13 238 3 70 10 130 14 133 5 3 9 50 9 104 0
54 4 101 9 104 4 3 11 49 14 103 5 89 12 133 23 133 2 0 43 -38 91 -85z m-44
-1357 c68 -68 150 -141 181 -163 32 -22 64 -46 71 -52 8 -7 18 -13 24 -13 6 0
11 -4 11 -10 0 -5 9 -10 20 -10 11 0 20 -4 20 -9 0 -5 20 -17 45 -28 25 -10
45 -21 45 -25 0 -5 9 -8 19 -8 11 0 23 -4 26 -10 3 -5 15 -10 26 -10 10 0 19
-3 19 -8 0 -4 24 -13 53 -21 28 -7 70 -18 92 -23 22 -6 96 -12 165 -15 108 -4
135 -1 200 17 41 12 87 24 103 27 15 3 27 9 27 14 0 5 9 9 19 9 19 0 151 65
161 80 3 4 15 13 28 19 35 19 58 38 141 122 78 77 85 85 136 154 17 22 33 42
38 43 4 2 7 10 7 17 0 7 7 15 14 18 12 5 14 -3 9 -46 -3 -29 -9 -56 -14 -62
-5 -5 -9 -28 -9 -52 0 -24 -4 -43 -8 -43 -7 0 -21 -48 -39 -132 -3 -16 -9 -28
-14 -28 -5 0 -9 -11 -9 -25 0 -14 -4 -25 -10 -25 -5 0 -10 -9 -10 -20 0 -11
-4 -20 -10 -20 -5 0 -10 -7 -10 -15 0 -9 -11 -33 -25 -55 -14 -22 -25 -43 -25
-48 0 -4 -9 -14 -20 -22 -11 -8 -20 -20 -20 -26 0 -10 -94 -108 -152 -159 -31
-27 -122 -75 -142 -75 -9 0 -16 -4 -16 -10 0 -5 -13 -10 -30 -10 -16 0 -30 -4
-30 -10 0 -6 -36 -10 -89 -10 -50 0 -93 5 -96 10 -3 6 -28 10 -55 10 -27 0
-52 5 -55 10 -3 6 -16 10 -28 10 -12 0 -42 7 -67 16 -44 16 -52 19 -117 46
-18 7 -33 16 -33 20 0 5 -9 8 -20 8 -11 0 -20 5 -20 10 0 6 -8 10 -19 10 -10
0 -24 7 -31 15 -7 8 -19 15 -26 15 -8 0 -14 5 -14 10 0 6 -5 10 -11 10 -11 0
-88 51 -111 73 -7 7 -35 28 -63 47 -53 36 -88 68 -230 210 -167 167 -153 143
-155 256 -3 106 -2 114 4 114 3 0 60 -55 129 -122z m3518 22 c8 11 12 12 16 3
2 -7 13 -13 24 -13 22 0 25 -25 5 -46 -21 -20 -28 -17 -21 9 5 17 4 19 -4 7
-10 -13 -12 -13 -21 0 -5 8 -10 11 -10 6 0 -6 -6 -1 -14 9 -8 11 -12 24 -9 28
3 5 9 3 14 -4 8 -12 11 -11 20 1z m2117 -241 c4 11 6 11 12 0 7 -10 11 -10 24
0 13 11 19 11 33 0 14 -12 17 -12 21 0 4 11 6 11 12 0 7 -10 11 -10 24 0 11 9
16 10 16 2 0 -6 16 -11 35 -11 19 0 35 -4 35 -10 0 -5 9 -10 20 -10 11 0 20
-4 20 -10 0 -5 10 -10 23 -11 12 0 16 -3 10 -6 -7 -2 -13 -12 -13 -20 0 -13 2
-13 17 -2 15 13 16 11 10 -13 -5 -19 -2 -32 10 -44 13 -13 15 -18 5 -22 -9 -3
-10 -7 -2 -17 8 -10 8 -15 -1 -20 -8 -6 -7 -10 2 -16 10 -7 11 -11 3 -16 -6
-5 -15 -27 -19 -50 -4 -24 -11 -43 -16 -43 -5 0 -9 -9 -9 -20 0 -13 -7 -20
-20 -20 -22 0 -27 -15 -7 -23 6 -3 4 -6 -7 -6 -21 -1 -41 -22 -58 -61 -6 -15
-12 -20 -15 -12 -7 19 -20 14 -26 -9 -3 -11 -14 -23 -25 -26 -11 -3 -23 -15
-27 -26 -4 -14 -8 -17 -12 -9 -8 19 -23 14 -23 -8 0 -13 -7 -20 -20 -20 -12 0
-20 -7 -20 -16 0 -14 -3 -14 -15 -4 -13 10 -15 9 -15 -9 0 -11 -4 -21 -10 -21
-5 0 -10 5 -10 10 0 6 -4 10 -10 10 -5 0 -10 -9 -10 -20 0 -11 -4 -20 -10 -20
-5 0 -10 5 -10 10 0 6 -4 10 -10 10 -5 0 -10 -10 -10 -22 0 -18 -2 -20 -10 -8
-7 12 -12 11 -27 -7 -11 -12 -37 -25 -58 -29 -22 -4 -47 -15 -56 -26 -9 -10
-30 -18 -48 -18 -17 0 -31 -4 -31 -10 0 -5 -9 -10 -20 -10 -11 0 -20 -4 -20
-9 0 -4 -27 -11 -60 -15 -33 -4 -62 -11 -66 -17 -4 -6 -11 -6 -20 2 -10 8 -14
8 -14 0 0 -6 -9 -11 -19 -11 -11 0 -22 -6 -24 -12 -4 -10 -8 -10 -15 1 -7 9
-11 10 -17 2 -5 -9 -10 -9 -21 0 -10 8 -14 8 -14 0 0 -6 -9 -11 -20 -11 -11 0
-20 -4 -20 -10 0 -5 -5 -10 -11 -10 -8 0 -7 5 1 15 7 9 10 19 6 22 -4 4 -11 1
-15 -6 -6 -9 -11 -10 -15 -2 -6 9 -22 5 -56 -17 -2 -2 2 -7 10 -12 8 -5 11
-12 7 -16 -4 -4 -16 3 -27 17 -18 20 -23 21 -31 9 -8 -11 -9 -8 -4 10 6 20 5
23 -5 13 -10 -9 -16 -8 -27 3 -8 8 -23 12 -33 9 -13 -4 -19 1 -24 20 -4 14
-11 25 -16 25 -6 0 -10 9 -10 20 0 14 -7 20 -22 20 -21 0 -21 0 2 20 25 22 20
41 -5 20 -9 -7 -15 -8 -15 -2 0 6 6 13 13 15 9 4 8 8 -3 16 -13 9 -12 13 8 27
16 11 20 19 13 28 -7 9 -5 16 9 26 15 11 17 17 7 29 -9 11 -9 15 1 18 6 3 12
12 12 20 0 13 3 13 15 3 18 -15 20 1 3 18 -9 9 -9 12 0 12 7 0 12 7 12 16 0
20 24 44 44 44 9 0 16 8 16 17 0 13 3 14 11 6 9 -9 15 -8 27 3 8 8 11 18 7 22
-4 4 -10 1 -12 -6 -3 -6 -9 -10 -14 -6 -12 7 15 34 35 34 9 0 16 4 16 9 0 5
10 13 22 17 13 4 36 21 52 38 18 20 31 26 33 19 7 -19 23 -16 23 5 0 19 51 46
90 47 18 0 26 6 28 23 3 21 22 32 22 12 0 -5 5 -10 10 -10 6 0 10 9 10 20 0
22 16 27 23 8 3 -9 11 -5 25 11 12 13 34 24 50 25 16 1 36 7 45 14 11 9 17 10
22 2 4 -7 14 -3 26 12 17 18 22 20 29 8 7 -12 12 -10 28 8 15 17 22 19 26 10
5 -10 7 -10 12 0 3 6 14 12 25 12 10 0 19 5 19 11 0 8 6 7 17 -2 13 -11 17
-11 20 -1 3 6 16 12 29 12 13 0 24 5 24 11 0 8 6 7 17 -2 14 -12 17 -12 21 0z
m-5951 -196 c-3 -10 -5 -4 -5 12 0 17 2 24 5 18 2 -7 2 -21 0 -30z m5013 -555
c0 -5 -7 -3 -15 6 -8 8 -15 18 -15 22 0 3 7 1 15 -6 8 -7 15 -17 15 -22z"/>
<path d="M5080 6799 c0 -5 5 -7 10 -4 6 3 10 8 10 11 0 2 -4 4 -10 4 -5 0 -10
-5 -10 -11z"/>
<path d="M4970 6710 c0 -5 5 -10 10 -10 6 0 10 5 10 10 0 6 -4 10 -10 10 -5 0
-10 -4 -10 -10z"/>
<path d="M5470 6705 c0 -9 6 -12 15 -9 8 4 15 10 15 15 0 5 -7 9 -15 9 -8 0
-15 -7 -15 -15z"/>
<path d="M4950 6651 c0 -5 -3 -18 -7 -28 -6 -17 -6 -17 10 -1 19 18 22 38 7
38 -5 0 -10 -4 -10 -9z"/>
<path d="M5431 6644 c0 -11 3 -14 6 -6 3 7 2 16 -1 19 -3 4 -6 -2 -5 -13z"/>
<path d="M2008 5413 c7 -3 16 -2 19 1 4 3 -2 6 -13 5 -11 0 -14 -3 -6 -6z"/>
<path d="M2131 5294 c0 -11 3 -14 6 -6 3 7 2 16 -1 19 -3 4 -6 -2 -5 -13z"/>
<path d="M5107 5513 c-4 -3 -7 -19 -7 -34 0 -36 27 -46 54 -20 19 20 19 21 1
41 -18 20 -36 25 -48 13z"/>
<path d="M4893 5324 c-33 -14 -2 -69 34 -62 27 5 25 62 -2 65 -11 1 -26 -1
-32 -3z"/>
<path d="M4691 5086 c-18 -22 -2 -46 30 -46 26 0 29 4 29 30 0 25 -4 30 -24
30 -13 0 -29 -6 -35 -14z"/>
<path d="M4582 4778 c-20 -20 -14 -47 12 -54 14 -3 30 -3 35 1 24 14 4 65 -24
65 -6 0 -16 -5 -23 -12z"/>
<path d="M5862 4724 c-40 -24 -46 -24 -96 -13 -50 11 -57 10 -95 -12 -24 -13
-41 -30 -41 -40 0 -10 -4 -21 -10 -24 -5 -3 -10 -19 -10 -36 0 -22 -5 -29 -20
-29 -11 0 -20 -4 -20 -10 0 -5 -9 -10 -19 -10 -11 0 -21 -3 -23 -7 -3 -7 -77
-49 -135 -77 -13 -6 -23 -14 -23 -18 0 -5 -6 -8 -14 -8 -8 0 -42 -16 -76 -35
-34 -19 -68 -35 -76 -35 -8 0 -14 -4 -14 -10 0 -5 -7 -10 -15 -10 -8 0 -15 -4
-15 -10 0 -5 -6 -10 -14 -10 -8 0 -16 -3 -18 -7 -1 -5 -25 -19 -52 -33 -27
-13 -43 -26 -35 -29 7 -2 15 1 17 8 2 6 10 11 17 11 18 0 89 32 93 43 2 4 15
7 28 7 13 0 24 5 24 10 0 6 9 10 20 10 11 0 20 5 20 10 0 6 6 10 14 10 14 0
88 31 191 79 33 16 83 38 111 51 l51 22 43 -22 c30 -15 52 -20 75 -16 45 9
105 65 105 98 0 21 10 32 46 52 26 14 51 26 56 26 19 0 38 29 38 59 0 30 -2
31 -42 30 -26 0 -60 -10 -86 -25z"/>
<path d="M6970 4640 c-16 -10 -9 -51 11 -63 21 -13 49 11 49 41 0 21 -39 35
-60 22z"/>
<path d="M4570 4451 c0 -5 -3 -16 -6 -24 -9 -23 24 -49 47 -37 21 12 25 40 7
58 -14 14 -48 16 -48 3z"/>
<path d="M6947 4363 c-14 -13 -7 -61 10 -67 25 -10 47 17 39 48 -6 25 -33 35
-49 19z"/>
<path d="M4651 4133 c-13 -14 -12 -18 8 -34 23 -19 46 -16 55 7 15 39 -34 60
-63 27z"/>
<path d="M6817 4054 c-25 -25 8 -70 43 -59 32 10 24 59 -10 63 -14 2 -29 0
-33 -4z"/>
<path d="M4782 3898 c-7 -7 -12 -16 -12 -21 0 -14 27 -37 45 -37 17 0 35 37
28 58 -6 15 -45 16 -61 0z"/>
<path d="M6668 3828 c-14 -41 31 -73 60 -44 13 13 14 20 6 34 -13 21 -60 28
-66 10z"/>
<path d="M5011 3709 c-23 -21 -23 -22 -4 -41 24 -23 53 -14 53 17 0 37 -23 48
-49 24z"/>
<path d="M6480 3665 c-27 -33 14 -82 44 -52 20 20 21 53 0 61 -23 9 -30 8 -44
-9z"/>
<path d="M5210 3585 c-18 -21 -3 -55 25 -55 19 0 35 16 35 35 0 7 -32 35 -39
35 -5 0 -14 -7 -21 -15z"/>
<path d="M6237 3543 c-13 -12 -7 -61 7 -66 15 -6 56 19 56 34 0 26 -46 49 -63
32z"/>
<path d="M5478 3492 c-22 -4 -24 -45 -3 -62 20 -16 45 3 45 35 0 24 -14 34
-42 27z"/>
<path d="M5982 3468 c-18 -18 -15 -48 6 -49 47 -3 67 13 51 43 -11 21 -39 24
-57 6z"/>
<path d="M5693 3443 c-16 -6 -17 -35 -1 -51 21 -21 47 -14 54 14 9 35 -16 52
-53 37z"/>
<path d="M7210 3010 c0 -5 5 -10 10 -10 6 0 10 5 10 10 0 6 -4 10 -10 10 -5 0
-10 -4 -10 -10z"/>
<path d="M7270 2990 c0 -5 5 -10 10 -10 6 0 10 5 10 10 0 6 -4 10 -10 10 -5 0
-10 -4 -10 -10z"/>
<path d="M7320 2970 c0 -5 5 -10 10 -10 6 0 10 5 10 10 0 6 -4 10 -10 10 -5 0
-10 -4 -10 -10z"/>
<path d="M6500 2810 c0 -5 5 -10 10 -10 6 0 10 5 10 10 0 6 -4 10 -10 10 -5 0
-10 -4 -10 -10z"/>
<path d="M6230 2610 c0 -5 5 -10 10 -10 6 0 10 5 10 10 0 6 -4 10 -10 10 -5 0
-10 -4 -10 -10z"/>
</g>
</svg>
