<?xml version="1.0" standalone="no"?>
<!DOCTYPE svg PUBLIC "-//W3C//DTD SVG 20010904//EN"
 "http://www.w3.org/TR/2001/REC-SVG-20010904/DTD/svg10.dtd">
<svg version="1.0" xmlns="http://www.w3.org/2000/svg"
 width="128.000000pt" height="128.000000pt" viewBox="0 0 128.000000 128.000000"
 preserveAspectRatio="xMidYMid meet">

<g transform="translate(0.000000,128.000000) scale(0.100000,-0.100000)"
fill="#000000" stroke="none">
<path d="M480 984 c0 -61 -3 -73 -24 -93 -13 -12 -31 -39 -40 -59 l-17 -38
-67 -1 c-76 0 -155 -29 -194 -70 -21 -22 -23 -34 -23 -118 1 -52 4 -97 7 -101
4 -3 27 -9 52 -11 42 -5 45 -4 52 21 4 16 2 32 -5 39 -17 17 -13 79 8 106 l19
25 43 -22 c24 -11 52 -23 61 -26 16 -5 16 -9 -3 -63 -50 -140 -13 -254 102
-318 52 -29 58 -30 189 -30 132 0 136 1 191 31 51 27 58 29 75 16 34 -26 118
-60 166 -67 39 -5 50 -3 67 14 27 27 26 47 -4 77 -14 14 -25 36 -25 51 0 26 1
26 14 7 21 -27 38 -6 34 42 -3 39 -3 39 -47 39 -47 0 -70 -22 -32 -32 19 -5
19 -7 6 -26 -21 -30 -19 -51 10 -85 39 -47 34 -56 -30 -49 -50 5 -135 42 -149
65 -3 5 4 27 15 50 27 55 27 139 0 215 -19 54 -19 58 -3 63 9 3 37 15 61 26
l43 22 19 -25 c21 -27 25 -89 8 -106 -7 -7 -9 -23 -5 -39 7 -25 10 -26 52 -21
25 2 48 8 52 11 3 4 6 49 7 101 0 84 -2 96 -23 118 -39 41 -118 70 -194 70
l-67 1 -17 38 c-9 20 -27 47 -40 59 -21 20 -24 32 -24 93 l0 70 -42 -41 c-43
-40 -44 -41 -118 -41 -74 0 -75 1 -117 41 l-43 41 0 -70z"/>
</g>
</svg>
