<?xml version="1.0" standalone="no"?>
<!DOCTYPE svg PUBLIC "-//W3C//DTD SVG 20010904//EN"
 "http://www.w3.org/TR/2001/REC-SVG-20010904/DTD/svg10.dtd">
<svg version="1.0" xmlns="http://www.w3.org/2000/svg"
 width="800.000000pt" height="794.000000pt" viewBox="0 0 800.000000 794.000000"
 preserveAspectRatio="xMidYMid meet">

<g transform="translate(0.000000,794.000000) scale(0.100000,-0.100000)"
fill="#000000" stroke="none">
<path d="M4962 7708 c-19 -19 -14 -43 13 -72 24 -26 25 -32 20 -109 -10 -133
2 -118 -131 -173 -17 -8 -58 67 -58 106 -1 30 -5 35 -28 38 -31 4 -71 -30 -62
-52 3 -8 18 -19 34 -25 20 -6 35 -23 48 -53 l19 -43 -35 -37 c-41 -44 -48 -46
-57 -18 -9 30 -39 42 -70 30 -22 -9 -33 -6 -65 17 -20 15 -46 46 -56 68 -23
50 -58 59 -75 21 -15 -32 10 -76 43 -76 23 0 168 -134 168 -155 0 -6 -13 -31
-29 -56 -15 -25 -36 -69 -45 -97 l-18 -52 -66 0 c-57 0 -69 3 -93 26 -22 21
-31 24 -47 15 -26 -14 -34 -60 -16 -88 14 -22 15 -22 47 -7 27 13 47 14 98 8
l64 -9 3 -72 3 -71 -50 -17 c-41 -13 -53 -14 -70 -3 -17 10 -23 9 -40 -6 -27
-24 -26 -29 4 -63 l24 -28 26 28 c14 15 36 27 48 27 12 0 32 3 43 6 17 5 24
-1 33 -27 6 -17 11 -38 11 -45 0 -7 -35 -39 -77 -71 -60 -45 -85 -58 -113 -58
-32 0 -35 -3 -38 -32 -2 -22 3 -38 17 -52 25 -25 47 -18 66 19 15 30 144 111
173 109 10 0 36 -24 58 -53 l41 -53 -31 -56 c-21 -38 -41 -60 -61 -69 -31 -12
-45 -25 -45 -44 0 -13 38 -54 50 -54 16 0 40 31 40 53 0 12 21 48 46 81 42 53
47 57 62 43 14 -15 14 -20 -3 -58 -13 -28 -28 -45 -47 -51 -28 -10 -46 -47
-33 -67 3 -6 21 -11 40 -11 41 0 70 32 55 60 -9 16 1 36 40 82 7 9 101 -22
125 -42 14 -12 16 -30 13 -113 -3 -90 -5 -101 -25 -115 -15 -9 -23 -25 -23
-42 0 -32 14 -40 53 -33 37 7 50 34 31 61 -13 19 -13 29 1 87 8 37 15 77 15
89 0 13 9 31 20 41 18 17 19 16 26 -9 4 -17 0 -35 -10 -51 -21 -32 -20 -50 5
-73 14 -14 18 -26 14 -44 -11 -43 42 -77 73 -46 16 16 15 44 -2 71 -11 17 -12
37 -4 98 l10 75 80 18 81 19 18 -24 c43 -56 89 -158 89 -197 0 -49 11 -58 51
-42 38 16 41 60 5 79 -16 9 -35 41 -60 105 -20 50 -36 97 -36 104 0 19 73 81
97 82 12 0 26 7 30 15 11 18 26 8 44 -29 23 -47 44 -54 74 -26 43 40 28 80
-30 80 -19 0 -39 8 -49 19 -17 19 -17 22 19 80 43 70 48 71 173 47 53 -10 81
-21 101 -40 33 -32 55 -33 75 -4 25 35 4 60 -47 57 -50 -4 -200 44 -228 72
-20 20 -23 39 -13 77 5 18 13 22 48 22 22 0 50 -7 60 -15 53 -40 112 19 66 65
-20 20 -23 20 -46 5 -19 -12 -36 -14 -70 -9 -51 7 -50 6 -64 94 -5 36 -12 76
-15 90 -5 22 3 30 64 68 51 31 79 42 109 42 46 0 68 24 57 60 -14 44 -79 47
-95 5 -5 -14 -31 -33 -66 -49 -89 -41 -98 -42 -119 -9 -10 15 -18 35 -18 43 2
26 149 173 185 184 44 15 51 57 13 82 -34 22 -75 6 -75 -29 0 -14 -8 -35 -19
-48 -30 -38 -158 -122 -176 -115 -37 14 -114 71 -118 88 -4 13 -15 18 -41 18
l-37 0 7 52 c5 38 14 58 31 71 28 22 30 58 5 80 -42 38 -67 7 -68 -82 0 -36
-6 -76 -13 -89 -11 -21 -16 -22 -84 -16 -40 4 -78 12 -86 20 -22 20 -50 182
-39 222 5 19 7 40 4 48 -7 17 -57 19 -74 2z"/>
<path d="M1339 7553 c-1 -4 -2 -42 -3 -83 -1 -44 -8 -88 -16 -105 -15 -29 -18
-30 -82 -31 l-67 -1 -23 56 c-13 31 -23 72 -23 91 0 31 -3 35 -27 38 -40 5
-56 -30 -27 -59 21 -21 49 -95 49 -129 0 -8 -16 -23 -35 -32 -34 -15 -36 -15
-50 6 -9 11 -20 37 -25 57 -16 58 -60 64 -60 9 0 -20 6 -31 20 -35 11 -4 27
-20 36 -36 18 -35 12 -46 -39 -74 l-34 -18 -70 43 c-38 24 -77 56 -86 72 -12
21 -23 29 -39 26 -49 -7 -25 -68 27 -68 11 0 40 -20 64 -44 39 -40 42 -45 29
-65 -10 -17 -11 -25 0 -42 11 -17 10 -32 -4 -89 -17 -64 -20 -69 -48 -73 -19
-3 -38 1 -48 10 -21 19 -58 8 -58 -18 0 -20 -34 -27 -45 -9 -3 6 -17 10 -31
10 -20 0 -24 -5 -24 -30 0 -35 23 -49 51 -32 26 16 174 16 186 0 6 -7 16 -31
23 -53 7 -22 28 -70 48 -107 l35 -66 -24 -30 c-13 -17 -34 -31 -45 -31 -32 -1
-51 -28 -36 -51 10 -16 8 -20 -8 -25 -23 -7 -25 -15 -7 -39 18 -24 50 -17 57
14 3 13 24 37 45 53 93 65 80 62 118 33 19 -14 49 -31 67 -37 32 -11 32 -13
26 -57 -3 -25 -6 -60 -6 -78 0 -22 -7 -40 -20 -51 -27 -24 -25 -51 4 -59 34
-8 47 3 40 32 -8 30 14 152 29 161 16 9 63 13 139 11 35 -1 39 -4 55 -46 9
-25 17 -62 18 -82 0 -29 4 -36 23 -38 29 -4 40 23 18 47 -14 15 -45 106 -46
132 0 3 22 13 49 23 27 9 59 28 72 42 12 13 29 24 36 24 24 0 130 -78 136 -99
11 -43 67 -33 67 10 0 13 -9 21 -29 25 -16 4 -51 29 -80 58 -45 46 -50 54 -37
65 21 18 89 -9 133 -51 27 -26 35 -29 48 -18 8 7 15 16 15 21 0 16 -33 40 -47
34 -12 -4 -96 38 -121 60 -2 2 3 16 11 32 8 15 17 45 21 65 9 48 18 53 60 33
40 -19 56 -14 56 20 0 27 -17 36 -43 23 -10 -5 -28 -8 -40 -5 -20 3 -20 4 8
16 19 8 61 11 110 9 80 -3 80 -3 80 22 0 21 -4 24 -25 22 -53 -8 -166 -7 -185
2 -19 8 -19 8 5 18 13 5 41 6 62 3 30 -5 39 -3 44 9 14 36 -41 62 -66 31 -7
-8 -24 -15 -39 -15 -22 0 -31 10 -58 68 l-32 67 32 27 c18 15 44 28 60 28 32
0 45 23 27 45 -18 22 -39 18 -51 -9 -10 -21 -65 -56 -89 -56 -37 0 56 125 101
135 15 3 30 13 33 20 7 20 -21 45 -50 45 -19 0 -24 -5 -24 -24 0 -21 -29 -50
-106 -108 -6 -4 -30 5 -57 22 -26 16 -58 32 -72 36 -13 3 -30 12 -36 20 -17
20 -12 133 7 162 21 32 15 66 -13 70 -13 2 -24 0 -24 -5z"/>
<path d="M7139 7253 c-3 -16 -6 -38 -8 -59 -1 -17 -10 -23 -42 -28 -46 -7 -62
5 -76 56 -6 19 -12 25 -21 19 -11 -6 -9 -15 7 -42 12 -19 21 -42 21 -51 0 -28
-22 -33 -41 -9 -10 12 -23 20 -29 16 -15 -9 -12 -25 4 -25 7 0 19 -7 26 -15
20 -25 -12 -19 -53 10 -22 14 -39 20 -43 14 -3 -6 -4 -11 -3 -12 71 -37 84
-47 80 -64 -2 -10 -5 -42 -8 -71 -5 -53 -5 -53 -49 -64 -41 -11 -60 -30 -49
-48 3 -4 23 0 45 11 21 10 43 19 47 19 4 0 25 -19 47 -41 l39 -42 -18 -31
c-10 -17 -23 -34 -29 -38 -8 -5 -7 -11 2 -20 10 -10 14 -8 18 10 4 12 13 22
20 22 8 0 19 11 24 25 14 36 33 32 25 -5 -4 -19 -3 -30 4 -30 6 0 11 11 11 24
0 19 6 24 38 30 57 9 59 8 66 -28 4 -23 14 -37 27 -41 29 -10 31 -3 10 38
l-19 37 41 40 c38 38 42 40 73 30 18 -6 35 -16 37 -23 3 -9 8 -9 17 -1 8 8 8
14 1 18 -5 4 -8 13 -4 21 3 11 -2 15 -19 15 -44 0 -62 35 -32 65 13 12 14 19
4 30 -19 23 -5 43 39 55 24 6 41 17 41 25 0 18 -8 18 -40 0 -14 -8 -34 -14
-44 -15 -22 0 -45 27 -46 53 0 10 -4 15 -10 12 -5 -3 -14 -3 -20 0 -12 7 23
81 42 88 10 4 10 7 1 17 -10 11 -14 10 -19 -6 -16 -43 -54 -82 -75 -77 -21 6
-22 28 -4 76 5 11 2 17 -7 17 -10 0 -15 -11 -16 -31 0 -18 -6 -37 -13 -43 -9
-8 -10 -2 -6 26 3 21 1 40 -4 43 -5 4 -10 3 -10 -2z"/>
<path d="M2572 6683 c-22 -9 -44 -63 -37 -92 3 -14 19 -46 35 -71 l29 -46 -6
-207 c-8 -258 -7 -257 -114 -274 -41 -6 -95 -20 -120 -31 l-46 -20 -48 97
c-47 96 -47 98 -31 129 21 41 21 95 -1 114 -64 55 -184 0 -186 -86 -1 -35 30
-76 58 -76 26 0 46 -29 64 -95 36 -135 38 -125 -37 -169 -37 -22 -86 -53 -109
-68 -23 -15 -45 -28 -50 -28 -5 0 -63 53 -131 118 l-122 117 -1 55 c-2 85 -11
113 -41 128 -86 41 -224 -100 -193 -198 10 -31 61 -53 105 -46 l38 6 112 -150
112 -150 -57 -64 c-68 -78 -94 -96 -138 -96 -34 0 -235 74 -359 132 -61 28
-70 37 -98 90 -39 72 -67 93 -117 85 -46 -8 -86 -46 -113 -108 -19 -46 -20
-51 -5 -83 25 -53 77 -68 159 -45 53 15 69 9 179 -65 52 -35 129 -82 171 -105
74 -41 119 -82 131 -120 3 -11 -6 -64 -21 -118 -14 -54 -29 -111 -33 -128 -10
-44 -37 -43 -82 3 -63 66 -136 68 -189 4 -46 -56 -39 -133 18 -179 33 -27 139
-8 171 30 7 10 24 17 37 17 22 0 24 -4 24 -44 l0 -43 -85 -7 c-74 -5 -90 -3
-122 14 -45 24 -83 25 -123 5 -38 -20 -60 -53 -60 -91 0 -82 117 -89 180 -11
15 18 21 19 107 7 100 -14 103 -16 103 -89 0 -18 14 -73 30 -123 17 -49 30
-95 30 -102 0 -21 -65 -75 -162 -136 -216 -135 -182 -122 -278 -114 -81 6 -86
5 -106 -17 -34 -38 -38 -65 -15 -112 25 -51 69 -86 117 -94 43 -7 68 13 97 79
17 40 27 50 71 68 28 11 59 25 68 30 10 6 22 10 27 10 5 0 48 18 95 40 47 22
106 45 131 52 l46 12 32 -36 c18 -20 71 -82 120 -136 48 -55 87 -104 87 -110
0 -11 -81 -115 -140 -178 -21 -23 -52 -45 -67 -48 -85 -19 -128 -87 -105 -165
19 -61 48 -91 88 -91 73 0 124 63 124 153 0 54 1 56 51 99 28 24 78 67 110 97
62 57 90 64 45 11 -50 -60 -46 -113 12 -137 21 -9 48 -12 66 -9 32 7 66 32 66
50 1 37 18 36 89 -5 117 -67 121 -85 72 -295 -16 -71 -32 -145 -36 -164 -5
-24 -23 -50 -55 -80 -81 -76 -78 -152 8 -178 53 -16 65 -15 94 8 34 26 40 63
22 130 l-15 55 49 145 c74 217 90 254 117 280 25 23 26 23 122 10 78 -10 117
-10 191 0 51 6 95 10 97 8 2 -2 25 -64 49 -137 l46 -134 -18 -41 c-10 -23 -22
-54 -26 -70 -20 -79 71 -147 164 -124 34 9 45 18 56 44 8 18 14 50 14 71 0 32
-7 44 -56 89 l-56 52 -14 124 c-20 182 -20 183 19 198 17 7 53 21 79 31 26 10
51 19 56 19 6 0 42 -51 82 -112 65 -103 71 -117 65 -151 -13 -89 26 -142 107
-142 47 0 77 32 78 81 0 32 -11 45 -98 111 -16 12 -37 44 -47 70 -10 26 -33
81 -51 121 -19 40 -34 79 -34 86 0 8 33 38 73 67 74 55 114 93 200 192 46 53
53 57 93 57 50 0 171 -59 317 -154 77 -51 90 -64 115 -114 50 -104 126 -114
183 -24 34 53 37 100 10 133 -16 20 -30 24 -97 27 l-79 4 -68 57 c-37 31 -112
88 -165 127 -115 84 -133 108 -113 156 7 18 23 71 36 118 13 47 31 102 40 123
14 34 19 37 58 38 100 3 105 2 142 -35 69 -69 145 -36 145 63 0 90 -59 117
-150 70 -32 -17 -45 -18 -104 -10 -38 5 -69 11 -71 13 -2 2 -1 24 2 51 l6 47
151 0 c145 0 153 -1 188 -25 65 -44 85 -48 133 -25 23 11 47 32 53 45 24 52
-36 135 -97 135 -24 0 -102 -37 -112 -53 -4 -6 -34 -7 -75 -3 -38 3 -106 9
-150 12 -81 6 -82 7 -88 36 -3 17 -6 43 -6 59 0 16 -10 70 -22 120 -21 90 -21
91 -3 126 12 22 38 45 68 62 27 14 101 57 164 94 106 63 118 67 146 58 55 -20
96 -14 129 20 28 27 30 34 24 75 -7 56 -40 121 -65 129 -36 11 -94 -23 -133
-80 -37 -52 -39 -54 -140 -85 -57 -18 -138 -45 -180 -61 -43 -16 -91 -29 -108
-29 -34 0 -80 26 -80 45 0 24 48 45 103 45 64 0 87 19 87 70 0 40 -43 108 -77
121 -46 17 -94 -20 -108 -86 -4 -16 -19 -40 -33 -52 l-25 -21 -101 102 c-56
57 -114 113 -129 124 l-28 21 29 53 c16 29 55 103 87 163 60 113 77 134 108
135 11 0 35 16 54 35 32 32 35 40 30 73 -4 24 -17 47 -38 65 -28 26 -36 28
-83 23 -53 -6 -73 -7 -144 -4 -32 1 -48 -5 -67 -22 -23 -22 -25 -30 -23 -94
l3 -71 -95 -118 c-106 -133 -85 -125 -215 -87 -38 12 -111 25 -162 30 -51 5
-101 14 -113 20 -43 23 -60 93 -80 339 -9 113 -9 126 7 149 44 61 53 79 53
108 0 20 -9 39 -28 57 -24 23 -36 27 -83 26 -29 0 -60 -3 -67 -6z m928 -511
c0 -10 -33 -63 -73 -117 -39 -55 -85 -119 -101 -143 -16 -23 -31 -40 -33 -38
-3 2 26 65 63 140 51 102 76 141 99 155 39 25 45 25 45 3z"/>
<path d="M5780 5793 c-23 -9 -50 -35 -50 -48 0 -7 15 -28 34 -46 33 -33 34
-37 46 -162 14 -147 9 -162 -59 -197 -22 -11 -60 -33 -84 -50 -25 -16 -52 -28
-60 -25 -8 4 -51 47 -96 96 -68 75 -80 94 -75 115 8 32 -19 74 -49 74 -36 0
-67 -28 -67 -59 0 -32 14 -48 49 -53 18 -2 41 -26 82 -88 32 -47 64 -98 70
-113 11 -27 9 -31 -29 -70 -37 -37 -44 -40 -69 -31 -18 6 -29 18 -31 32 -4 28
-46 57 -69 48 -26 -11 -120 59 -128 95 -7 32 -31 49 -68 49 -43 0 -75 -78 -45
-108 7 -7 30 -12 53 -12 32 0 50 -8 90 -41 28 -22 55 -54 61 -71 13 -38 42
-60 66 -52 12 4 21 -2 29 -19 9 -20 6 -34 -19 -83 -16 -32 -35 -84 -41 -114
-8 -36 -19 -60 -32 -68 -12 -8 -73 -15 -154 -19 -134 -6 -134 -5 -165 21 -38
31 -54 32 -80 6 -29 -29 -26 -76 5 -96 23 -15 28 -15 66 0 37 15 56 16 158 6
63 -7 128 -18 143 -26 31 -16 35 -29 41 -131 l4 -72 -47 -11 c-41 -10 -53 -9
-80 5 -39 20 -54 15 -75 -26 -23 -43 -13 -96 21 -111 23 -11 29 -8 64 29 31
32 48 41 86 47 47 6 63 -2 64 -30 0 -18 -71 -48 -105 -45 -44 3 -73 -30 -57
-64 13 -27 53 -48 76 -39 8 3 22 21 30 39 21 43 72 64 92 37 27 -35 14 -55
-99 -145 -69 -56 -104 -77 -137 -84 -69 -13 -84 -61 -34 -110 14 -14 43 -17
69 -7 9 4 25 26 35 49 13 30 35 54 81 87 133 94 162 98 223 34 46 -48 76 -70
156 -112 30 -15 57 -29 59 -31 4 -3 -12 -70 -35 -143 -11 -35 -21 -48 -44 -57
-19 -7 -31 -20 -36 -39 -9 -37 32 -74 81 -74 29 0 36 4 41 25 3 14 4 37 2 50
-3 14 9 62 28 113 36 96 28 91 127 76 41 -6 47 -10 47 -31 0 -41 18 -63 51
-63 32 0 79 38 79 65 0 25 28 17 44 -12 7 -16 24 -74 37 -131 19 -86 21 -109
11 -136 -15 -42 -15 -89 0 -104 17 -17 59 -15 86 4 30 21 29 64 -3 94 -21 19
-25 33 -25 79 -1 31 -7 90 -14 131 -17 98 -10 112 68 141 33 12 67 27 73 32
23 17 43 0 37 -31 -7 -35 10 -72 32 -72 9 0 29 7 44 17 26 15 30 15 44 0 13
-13 14 -20 4 -41 -32 -72 106 -91 154 -22 23 34 -5 75 -52 76 -14 0 -31 4 -38
8 -13 9 -82 119 -82 133 0 18 156 159 176 159 34 0 153 -39 217 -71 39 -20 61
-38 68 -57 14 -37 38 -62 60 -62 28 0 59 40 59 76 0 42 -20 57 -63 49 -31 -6
-45 -1 -106 39 -39 25 -85 53 -103 62 -48 24 -78 54 -78 78 0 12 11 54 25 94
14 41 25 86 25 101 0 64 59 91 110 51 14 -11 37 -20 53 -20 31 0 67 31 67 59
0 32 74 43 122 19 47 -23 71 -23 91 0 23 25 22 85 -1 105 -25 23 -44 21 -77
-5 -28 -22 -43 -24 -212 -31 l-93 -4 0 42 c0 46 -22 75 -57 75 -16 0 -23 10
-33 44 -7 25 -30 73 -51 108 -21 35 -39 68 -39 74 0 10 107 122 149 155 13 10
34 19 47 19 31 0 64 33 64 65 0 17 -9 29 -31 41 -42 21 -74 7 -97 -45 -12 -25
-40 -55 -82 -87 -87 -66 -120 -86 -120 -75 0 5 30 51 68 102 62 87 70 94 104
97 43 4 79 40 71 72 -7 27 -50 60 -78 60 -27 0 -75 -58 -75 -91 0 -20 -141
-179 -159 -178 -9 0 -56 24 -106 53 -75 44 -91 57 -93 80 -2 15 15 86 38 157
36 111 46 132 71 146 31 18 46 51 35 78 -3 9 -22 23 -42 31 -53 22 -68 5 -66
-77 2 -54 -3 -71 -43 -151 -25 -50 -57 -106 -72 -124 -23 -31 -30 -34 -78 -34
l-53 0 -4 73 c-2 57 1 77 15 97 21 31 25 93 7 115 -16 19 -48 19 -88 -1 -40
-20 -50 -55 -28 -100 17 -37 19 -67 10 -126 -6 -35 -9 -38 -39 -38 -19 0 -39
8 -50 20 -9 10 -32 77 -50 147 -30 115 -32 130 -19 155 19 37 18 54 -6 78 -20
20 -41 24 -70 13z"/>
<path d="M4692 3698 c-15 -15 -15 -41 0 -56 9 -9 8 -23 -4 -59 -9 -27 -19 -62
-23 -79 l-6 -31 -89 -6 c-48 -4 -101 -12 -116 -19 -24 -11 -28 -10 -38 6 -6
10 -26 41 -43 69 -27 42 -32 57 -27 88 7 43 -13 60 -56 50 -35 -9 -39 -48 -7
-75 23 -19 83 -153 74 -163 -3 -2 -15 10 -28 27 -13 17 -34 43 -46 59 -13 16
-23 42 -23 58 0 35 -16 53 -47 53 -48 0 -51 -70 -3 -85 13 -4 35 -36 59 -82
l38 -76 -65 -85 c-59 -79 -71 -100 -101 -174 -10 -26 -15 -28 -62 -28 -36 0
-58 6 -76 20 -19 15 -30 17 -44 9 -15 -7 -27 -6 -48 7 -36 21 -61 13 -61 -20
0 -31 28 -49 53 -34 14 7 22 4 36 -14 17 -21 22 -22 51 -11 23 9 39 9 63 1 35
-13 69 -47 62 -65 -11 -33 31 -219 58 -251 16 -20 -59 -84 -89 -77 -27 6 -58
-27 -51 -54 3 -13 -1 -21 -14 -24 -24 -6 -33 -30 -25 -62 9 -35 48 -34 66 3
18 35 73 86 126 114 l42 22 38 -34 c22 -18 42 -40 45 -49 3 -9 19 -18 35 -21
21 -4 30 -12 32 -28 6 -37 -38 -161 -69 -197 -45 -51 -36 -85 22 -85 11 0 24
11 31 25 9 19 14 22 24 14 22 -18 64 -2 64 24 0 13 -4 27 -10 33 -12 12 36
143 56 151 8 3 25 2 39 -1 22 -6 25 -11 25 -54 -1 -26 -7 -58 -15 -72 -31 -54
-13 -89 40 -76 19 5 25 13 25 34 0 15 -5 33 -12 40 -9 9 -8 25 1 67 12 53 14
55 45 55 19 0 40 -8 48 -17 21 -24 49 -157 46 -217 -3 -55 17 -80 50 -60 24
16 26 41 5 72 -21 31 -45 198 -32 223 5 9 30 26 56 39 26 12 62 33 80 47 l33
25 29 -28 c16 -16 31 -42 33 -59 3 -28 6 -30 43 -30 35 0 40 -3 43 -25 2 -14
11 -31 20 -37 13 -11 20 -9 39 9 35 33 25 78 -18 78 -14 0 -97 92 -122 136 -4
7 9 37 27 69 30 50 66 163 66 209 0 21 73 22 90 1 29 -35 74 -7 68 42 -4 33
-31 42 -58 18 -15 -14 -24 -15 -60 -5 -68 18 -64 63 9 76 20 4 53 14 75 22 32
13 44 13 73 3 43 -16 63 -2 63 46 0 36 -22 54 -45 37 -51 -38 -66 -43 -147
-49 -77 -6 -89 -5 -94 10 -10 26 11 41 41 27 30 -14 52 -7 60 18 7 21 -12 57
-33 65 -18 7 -52 -12 -52 -29 0 -8 -9 -16 -20 -19 -16 -4 -24 2 -34 26 -11 27
-11 35 2 50 8 9 27 17 42 17 35 0 58 25 43 48 -22 35 -83 22 -83 -18 0 -20
-23 -33 -42 -24 -7 3 -28 24 -47 46 l-34 39 33 69 c26 55 38 69 60 74 48 9 49
59 3 77 -32 12 -41 6 -49 -38 -4 -20 -25 -60 -47 -89 -38 -52 -62 -64 -83 -45
-5 5 -33 16 -63 26 l-54 18 6 72 c3 41 13 89 22 109 9 19 15 43 13 53 -4 22
-38 29 -56 11z m-272 -1286 c-10 -47 -33 -82 -46 -70 -2 3 7 33 22 67 15 34
29 60 31 58 2 -2 -1 -27 -7 -55z"/>
<path d="M6340 3185 c0 -42 -24 -57 -45 -29 -14 18 -14 18 -15 -5 0 -23 -1
-24 -20 -6 -11 10 -20 24 -20 32 0 8 -4 12 -9 8 -6 -3 -3 -18 7 -35 22 -38 7
-57 -31 -39 -15 7 -27 16 -27 21 0 4 -8 8 -17 8 -14 -1 -12 -5 9 -21 16 -12
25 -26 21 -34 -3 -8 0 -15 7 -15 8 0 10 -8 5 -27 -4 -16 -7 -37 -7 -48 1 -23
-14 -35 -45 -35 -14 0 -23 -6 -23 -15 0 -16 16 -20 24 -6 3 5 17 11 31 13 22
5 25 2 19 -15 -5 -15 -3 -19 9 -14 8 3 23 -3 33 -14 16 -18 16 -20 1 -37 -19
-21 -22 -32 -8 -32 5 0 12 10 15 23 7 21 8 21 15 3 7 -18 8 -18 14 -2 5 14 13
16 30 11 12 -4 33 -8 47 -8 18 -2 27 -10 34 -34 5 -18 13 -33 17 -33 12 0 11
14 -2 27 -14 14 -2 57 21 78 18 16 20 16 44 -8 23 -23 36 -25 36 -5 0 4 -6 8
-13 8 -8 0 -22 10 -33 21 -19 22 -19 22 6 17 14 -3 33 -9 43 -13 9 -4 17 -3
17 3 0 5 -13 12 -30 16 -25 5 -30 10 -30 35 0 25 5 30 28 34 l27 4 -27 2 c-16
0 -28 5 -28 10 0 9 48 26 63 23 4 -1 7 5 7 13 0 12 -4 13 -19 5 -33 -17 -58
-11 -81 17 -21 27 -21 28 -3 43 19 15 23 33 11 45 -3 4 -14 -7 -23 -24 -18
-36 -30 -39 -45 -11 -6 11 -16 17 -22 14 -8 -5 -9 4 -5 29 3 21 2 37 -4 37 -5
0 -9 -16 -9 -35z"/>
<path d="M1195 2851 c-3 -6 -4 -15 -1 -19 3 -5 0 -27 -6 -51 -8 -30 -18 -45
-35 -52 -34 -13 -43 -11 -43 6 0 24 -26 17 -38 -10 -6 -14 -16 -25 -21 -25
-15 0 -71 73 -71 92 0 11 -5 15 -15 12 -15 -6 -21 -34 -7 -34 10 0 55 -91 48
-98 -9 -9 -58 29 -63 50 -3 11 -12 18 -22 16 -20 -4 -28 -38 -8 -38 15 0 57
-41 57 -56 0 -6 -6 -18 -13 -28 -12 -16 -18 -17 -55 -5 -23 7 -42 16 -42 21 0
14 -27 9 -33 -6 -8 -19 1 -26 35 -26 57 0 67 -16 61 -94 -6 -76 -13 -86 -55
-86 -16 0 -28 -5 -28 -11 0 -7 -7 -17 -16 -23 -9 -7 -12 -18 -9 -28 6 -16 9
-16 33 2 15 10 41 21 57 25 28 5 34 1 69 -46 l39 -51 -18 -31 c-10 -18 -26
-41 -37 -53 -17 -19 -16 -34 4 -34 4 0 14 16 22 35 8 19 22 35 30 35 9 0 16 9
16 20 0 12 7 20 16 20 13 0 14 -3 5 -13 -12 -15 -5 -27 16 -27 7 0 13 7 13 15
0 12 13 15 58 15 l59 0 16 -40 c8 -22 13 -49 10 -60 -4 -14 0 -20 12 -20 14 0
16 5 10 23 -4 12 -10 42 -12 68 -4 41 -2 46 22 57 24 11 27 10 32 -8 6 -22 33
-28 33 -7 0 8 3 8 9 -2 6 -8 16 -11 27 -7 16 6 15 10 -11 30 l-29 24 19 36
c11 20 22 36 25 36 20 0 88 -25 101 -36 17 -15 29 -9 29 13 0 7 -10 13 -22 13
-34 1 -93 33 -93 50 0 16 22 17 64 4 19 -6 22 -4 19 12 -2 13 -12 18 -38 18
-32 1 -35 4 -38 33 -4 38 19 54 81 57 43 2 61 21 30 33 -10 3 -21 11 -25 16
-4 6 -19 4 -41 -6 -44 -21 -63 -21 -71 -2 -4 10 3 19 19 25 16 6 23 15 19 25
-8 20 -21 19 -32 -1 -6 -10 -14 -14 -22 -9 -14 9 33 62 68 76 13 5 22 14 20
21 -7 20 -26 20 -32 1 -3 -10 -24 -28 -46 -41 -34 -19 -43 -20 -60 -10 -26 16
-25 32 2 57 19 19 20 21 4 27 -10 4 -22 2 -29 -5 -6 -6 -8 -11 -4 -11 4 0 3
-9 -3 -20 -6 -11 -20 -20 -30 -20 -23 0 -24 3 -7 30 10 17 9 22 -2 29 -9 6
-12 18 -7 35 3 14 7 29 7 33 1 12 -19 15 -26 4z"/>
<path d="M5600 2836 c0 -9 5 -16 10 -16 6 0 10 4 10 9 0 6 -4 13 -10 16 -5 3
-10 -1 -10 -9z"/>
<path d="M6256 2831 c-4 -7 -5 -15 -2 -18 9 -9 19 4 14 18 -4 11 -6 11 -12 0z"/>
<path d="M5635 2810 c4 -11 2 -20 -4 -20 -6 0 -11 6 -12 13 -1 6 -4 1 -8 -13
-4 -16 -15 -26 -31 -28 -14 -2 -29 -10 -33 -18 -6 -10 -13 -11 -27 -4 -18 10
-22 -2 -8 -25 3 -5 2 -21 -3 -34 -8 -20 -14 -23 -44 -18 -19 3 -35 2 -35 -3 0
-5 15 -10 33 -12 41 -4 38 -21 -5 -29 -38 -7 -28 -12 19 -9 40 2 57 -35 27
-57 -17 -13 -16 -14 11 -7 28 7 29 6 15 -12 -7 -10 -20 -24 -28 -31 -8 -6 -11
-16 -8 -22 4 -6 19 3 35 21 27 30 30 31 59 19 27 -11 31 -18 29 -44 -1 -17 3
-32 11 -34 8 -3 12 7 12 31 0 34 15 47 34 29 4 -4 15 -8 24 -8 9 0 22 -11 29
-25 7 -14 13 -20 13 -14 0 7 -7 25 -15 40 -13 25 -13 30 1 44 13 13 16 13 24
0 5 -8 12 -11 17 -7 4 5 1 12 -7 17 -27 17 -1 22 31 6 37 -18 39 -19 39 -8 0
4 -14 13 -31 19 -21 8 -30 17 -27 30 3 14 13 18 46 17 23 0 42 3 42 8 0 4 -11
8 -24 8 -13 0 -27 7 -30 16 -3 8 -10 12 -16 9 -5 -3 -15 6 -20 22 -6 15 -15
36 -20 46 -12 20 -5 35 22 55 10 7 16 18 13 23 -9 14 -25 11 -25 -4 0 -8 -9
-22 -20 -32 -18 -16 -20 -16 -20 -2 0 10 -4 17 -10 17 -5 0 -10 -4 -10 -9 0
-5 -12 -6 -27 -2 -23 6 -27 12 -25 34 2 15 -1 27 -8 27 -7 0 -9 -8 -5 -20z"/>
<path d="M5470 2770 c0 -5 5 -10 11 -10 5 0 7 5 4 10 -3 6 -8 10 -11 10 -2 0
-4 -4 -4 -10z"/>
<path d="M5780 2740 c0 -5 5 -10 10 -10 6 0 10 5 10 10 0 6 -4 10 -10 10 -5 0
-10 -4 -10 -10z"/>
<path d="M7145 2446 c-14 -10 -18 -25 -16 -67 1 -40 -7 -74 -31 -136 -51 -130
-91 -162 -165 -131 -16 6 -80 12 -147 12 l-119 1 -23 79 c-28 94 -29 103 -9
122 23 24 18 61 -10 80 -36 23 -93 11 -106 -22 -10 -28 -7 -37 24 -72 19 -20
25 -43 43 -169 7 -44 3 -49 -41 -56 -11 -2 -33 -10 -50 -19 -29 -16 -30 -15
-47 13 -37 60 -112 22 -106 -54 5 -70 -21 -61 -128 45 -89 87 -101 105 -103
150 -1 9 -12 29 -24 44 l-24 27 -36 -22 c-60 -37 -53 -93 15 -113 22 -6 44
-21 50 -32 15 -29 73 -104 114 -148 20 -22 34 -48 34 -62 0 -29 -88 -156 -108
-156 -7 0 -17 12 -23 27 -20 53 -70 60 -89 13 -18 -42 -58 -42 -67 0 -4 20
-13 32 -28 36 -58 14 -131 -68 -107 -121 13 -28 34 -31 83 -11 33 14 38 13
108 -21 63 -31 72 -38 67 -57 -4 -11 -16 -61 -28 -110 -21 -88 -21 -89 -63
-107 -48 -21 -166 -45 -236 -48 -34 -1 -50 3 -64 19 -20 22 -64 27 -83 8 -19
-19 -14 -76 8 -98 26 -26 32 -25 67 4 26 22 35 24 168 24 171 1 177 -2 194
-90 7 -35 22 -83 33 -108 11 -25 20 -56 20 -69 1 -36 -35 -61 -76 -54 -61 10
-102 -32 -86 -88 7 -22 3 -32 -24 -58 -25 -24 -41 -31 -72 -31 -44 0 -74 -22
-74 -54 0 -26 31 -75 52 -82 20 -6 58 12 58 27 0 26 49 75 124 125 45 30 91
61 102 69 21 15 23 14 44 -20 24 -39 57 -52 89 -35 18 9 26 6 53 -19 17 -16
64 -46 104 -68 59 -30 72 -42 69 -58 -27 -137 -49 -205 -76 -231 -69 -66 -11
-155 62 -95 20 16 23 27 21 72 -1 41 7 75 34 144 20 49 40 95 46 100 7 7 9
-27 5 -109 -5 -119 -5 -120 -36 -148 -43 -38 -51 -80 -20 -102 30 -21 83 -21
100 0 8 10 13 36 12 63 -1 25 -2 61 -2 79 0 46 26 193 36 203 5 5 58 9 118 10
107 1 110 0 132 -26 13 -14 23 -36 23 -48 0 -12 12 -68 26 -125 22 -84 25
-108 15 -128 -27 -61 -1 -110 53 -99 51 11 60 26 42 66 -8 19 -25 45 -36 59
-17 22 -21 45 -27 156 -7 148 -2 164 55 193 l37 19 43 -65 c27 -40 41 -71 37
-82 -8 -26 22 -91 48 -100 29 -11 50 1 77 44 19 31 20 38 8 62 -7 15 -26 34
-41 41 -25 12 -77 95 -77 123 0 19 33 38 65 38 25 0 48 -18 128 -97 79 -79 99
-104 102 -132 8 -59 52 -76 99 -39 50 40 28 99 -38 99 -20 0 -41 20 -103 100
-43 55 -81 111 -84 124 -5 16 8 53 43 126 57 118 41 112 202 67 76 -22 94 -31
120 -62 25 -30 37 -36 61 -33 40 4 61 42 46 82 -11 27 -13 28 -64 22 -48 -5
-60 -1 -157 47 -104 52 -105 52 -104 87 2 77 51 123 92 87 26 -22 59 -26 79
-11 11 8 43 13 79 14 48 0 65 -4 79 -20 35 -38 98 -20 110 32 5 21 1 33 -19
53 l-26 26 -39 -22 c-34 -19 -48 -21 -105 -14 -50 5 -74 13 -97 32 -29 24 -32
25 -70 13 -51 -17 -58 -10 -69 76 -5 38 -16 89 -25 114 -26 73 -18 86 111 173
107 72 117 77 154 71 49 -8 70 7 70 50 -1 80 -80 91 -120 16 -9 -17 -180 -106
-238 -124 -37 -12 -58 2 -112 76 l-51 70 28 32 c15 17 29 33 31 35 1 3 18 6
38 7 52 5 67 20 59 63 -18 97 -117 111 -117 17 0 -28 -8 -43 -39 -71 -43 -39
-51 -41 -68 -21 -17 20 12 75 52 101 66 42 21 118 -50 86 -23 -10 -25 -16 -20
-51 8 -63 -45 -114 -81 -78 -19 19 -14 47 29 168 33 92 48 121 75 143 39 33
43 58 12 87 -25 23 -66 26 -93 6z"/>
</g>
</svg>
