<?xml version="1.0" standalone="no"?>
<!DOCTYPE svg PUBLIC "-//W3C//DTD SVG 20010904//EN"
 "http://www.w3.org/TR/2001/REC-SVG-20010904/DTD/svg10.dtd">
<svg version="1.0" xmlns="http://www.w3.org/2000/svg"
 width="360.000000pt" height="360.000000pt" viewBox="0 0 360.000000 360.000000"
 preserveAspectRatio="xMidYMid meet">

<g transform="translate(0.000000,360.000000) scale(0.100000,-0.100000)"
fill="#000000" stroke="none">
<path d="M1775 3121 c-11 -16 -66 -84 -122 -152 -370 -450 -774 -951 -770
-955 5 -6 89 -19 437 -70 102 -15 187 -29 190 -31 2 -2 -108 -116 -245 -253
-137 -137 -247 -251 -245 -253 3 -2 73 -16 155 -31 219 -41 220 -41 220 -47 0
-3 -128 -194 -285 -424 -333 -490 -310 -455 -282 -435 149 104 1352 986 1352
992 0 4 -28 9 -62 9 -35 1 -91 4 -126 8 l-63 6 266 240 c146 132 280 252 297
267 18 15 29 30 26 33 -3 3 -79 26 -169 50 -90 25 -186 52 -214 60 -27 8 -87
25 -132 38 l-83 23 61 70 c34 38 76 85 93 104 28 31 331 371 530 595 39 44 90
100 114 126 23 25 42 49 42 53 0 3 -217 6 -482 6 l-483 0 -20 -29z m749 -93
c-4 -7 -98 -114 -208 -237 -111 -123 -245 -274 -300 -335 -54 -61 -127 -142
-161 -181 -35 -38 -75 -84 -89 -102 l-27 -32 38 -10 c246 -65 528 -144 535
-150 4 -4 -132 -132 -302 -285 -171 -153 -310 -282 -310 -286 0 -4 37 -11 81
-15 133 -11 133 -11 22 -90 -54 -38 -203 -145 -332 -238 -128 -92 -235 -166
-237 -165 -1 2 36 61 84 131 214 313 252 370 250 373 -2 1 -71 17 -153 35 -83
18 -152 34 -155 36 -2 2 105 113 239 247 l243 243 -33 7 c-40 7 -450 71 -559
87 -41 6 -78 14 -82 18 -4 3 14 31 40 62 26 31 175 213 332 405 156 192 311
382 343 422 l60 72 344 0 c273 0 343 -3 337 -12z"/>
</g>
</svg>
