<?xml version="1.0" standalone="no"?>
<!DOCTYPE svg PUBLIC "-//W3C//DTD SVG 20010904//EN"
 "http://www.w3.org/TR/2001/REC-SVG-20010904/DTD/svg10.dtd">
<svg version="1.0" xmlns="http://www.w3.org/2000/svg"
 width="512.000000pt" height="512.000000pt" viewBox="0 0 512.000000 512.000000"
 preserveAspectRatio="xMidYMid meet">

<g transform="translate(0.000000,512.000000) scale(0.100000,-0.100000)"
fill="#000000" stroke="none">
<path d="M355 4146 c-39 -17 -70 -48 -92 -89 -16 -30 -17 -122 -18 -1216 0
-939 -3 -1185 -13 -1189 -32 -10 -116 -89 -146 -135 -49 -76 -69 -141 -69
-227 -1 -92 20 -162 69 -235 145 -220 456 -252 642 -66 90 90 127 190 120 323
-7 136 -69 245 -182 323 l-56 38 0 164 0 163 1940 0 1940 0 0 -168 0 -169 -25
-11 c-36 -16 -123 -100 -151 -144 -159 -250 -2 -591 294 -637 321 -51 581 291
444 584 -33 69 -103 152 -158 186 l-33 20 -3 728 -3 727 -27 41 c-75 113 -251
108 -316 -10 -15 -28 -17 -69 -20 -340 l-3 -307 -1937 2 -1937 3 -5 770 c-4
559 -8 775 -17 790 -18 31 -65 73 -96 84 -38 15 -106 13 -142 -3z m301 -2788
c29 -87 8 -172 -57 -237 -61 -62 -149 -85 -233 -61 -125 35 -201 193 -151 313
21 51 35 55 35 10 0 -47 26 -92 76 -129 33 -25 46 -29 105 -29 60 0 71 3 106
31 47 37 73 87 73 138 0 32 2 37 14 26 8 -6 22 -34 32 -62z m3857 -44 c80
-154 315 -108 343 67 l7 42 18 -34 c25 -46 25 -150 0 -204 -66 -147 -258 -181
-373 -66 -79 79 -95 179 -45 276 l21 40 7 -46 c4 -25 14 -59 22 -75z"/>
<path d="M1534 3802 c-105 -37 -198 -130 -226 -226 -7 -23 -12 -75 -12 -117 0
-65 4 -85 31 -140 109 -222 392 -271 565 -98 143 143 140 359 -7 503 -87 85
-238 119 -351 78z"/>
<path d="M2300 3301 c-79 -26 -147 -89 -183 -170 -19 -41 -22 -69 -25 -243
l-4 -198 975 0 c971 0 974 0 1001 21 42 33 36 79 -16 122 -201 161 -596 323
-973 398 -286 57 -702 95 -775 70z"/>
<path d="M955 3076 c-56 -24 -60 -35 -65 -213 l-5 -163 468 0 467 0 0 47 c0
27 -9 65 -21 91 -37 76 -68 89 -383 159 -470 106 -419 97 -461 79z"/>
</g>
</svg>
