<?xml version="1.0" standalone="no"?>
<!DOCTYPE svg PUBLIC "-//W3C//DTD SVG 20010904//EN"
 "http://www.w3.org/TR/2001/REC-SVG-20010904/DTD/svg10.dtd">
<svg version="1.0" xmlns="http://www.w3.org/2000/svg"
 width="900.000000pt" height="480.000000pt" viewBox="0 0 900.000000 480.000000"
 preserveAspectRatio="xMidYMid meet">

<g transform="translate(0.000000,480.000000) scale(0.100000,-0.100000)"
fill="#000000" stroke="none">
<path d="M4250 4455 c-153 -37 -278 -133 -345 -265 -106 -208 -66 -450 100
-610 278 -266 725 -153 849 215 55 162 12 366 -106 500 -117 133 -328 201
-498 160z"/>
<path d="M4785 3527 c-68 -23 -101 -44 -148 -97 -68 -76 -95 -178 -74 -282 12
-60 22 -44 23 35 0 85 22 134 82 189 120 109 316 70 388 -78 23 -47 27 -70 29
-152 7 -302 -89 -619 -261 -864 -49 -70 -56 -87 -72 -173 -11 -52 -21 -97 -24
-100 -6 -6 -158 -25 -201 -25 -27 0 -25 3 30 48 319 267 510 691 498 1109 -2
80 -7 111 -24 146 -64 133 -260 163 -357 55 -53 -58 -57 -73 -65 -237 -9 -183
-36 -298 -100 -424 -101 -201 -234 -331 -454 -447 -115 -61 -140 -81 -167
-133 -40 -79 -30 -187 24 -244 l21 -22 -24 -20 c-13 -11 -27 -20 -30 -21 -13
0 -61 -79 -80 -131 -18 -46 -21 -76 -20 -211 0 -87 2 -162 4 -166 3 -4 8 -43
11 -87 4 -44 13 -143 20 -220 7 -77 14 -223 15 -324 2 -203 8 -231 64 -289 77
-81 189 -99 284 -47 82 44 118 107 131 229 8 81 9 505 2 703 -3 72 -3 134 0
137 10 9 225 23 403 25 l179 2 -7 -78 c-3 -43 -8 -103 -11 -133 -7 -83 -7
-407 1 -475 31 -273 123 -392 343 -441 101 -23 377 -15 552 16 198 35 469 106
520 138 125 77 146 264 42 364 -83 80 -130 87 -319 49 -185 -38 -370 -61 -489
-61 -81 0 -92 2 -96 18 -18 67 83 769 119 837 81 149 87 180 80 410 -12 430
-142 832 -386 1202 -100 151 -159 215 -225 248 -65 32 -171 42 -231 22z"/>
<path d="M3088 2897 l-38 -32 96 -170 c53 -93 98 -172 100 -174 2 -2 21 11 42
28 22 17 43 31 46 31 3 0 76 -88 162 -195 86 -107 158 -195 161 -195 2 0 -10
26 -28 58 -102 181 -233 410 -246 430 l-14 23 -54 -30 -53 -30 -58 144 c-33
80 -63 145 -69 145 -5 0 -27 -15 -47 -33z"/>
<path d="M2785 2510 c-21 -22 -35 -43 -31 -47 4 -4 62 -38 129 -75 l122 -67
30 29 30 29 108 -69 c60 -39 112 -70 116 -70 5 0 16 11 25 24 l16 25 107 -61
c60 -33 127 -71 151 -84 23 -14 42 -23 42 -20 0 6 -263 238 -277 243 -6 2 -29
-7 -50 -20 l-39 -25 -94 84 c-52 46 -98 83 -101 84 -3 0 -24 -16 -47 -36 -25
-21 -47 -32 -54 -28 -7 4 -43 33 -79 65 l-66 58 -38 -39z"/>
<path d="M3117 2148 c-9 -21 -21 -38 -29 -38 -7 1 -89 16 -183 34 -93 19 -171
33 -173 32 -1 -2 -5 -21 -8 -44 -5 -37 -3 -42 18 -46 29 -6 392 -56 407 -56 6
0 11 16 11 36 l0 37 118 -7 c208 -12 317 -15 302 -10 -9 2 -113 26 -232 52
l-216 48 -15 -38z"/>
</g>
</svg>
