<?xml version="1.0" standalone="no"?>
<!DOCTYPE svg PUBLIC "-//W3C//DTD SVG 20010904//EN"
 "http://www.w3.org/TR/2001/REC-SVG-20010904/DTD/svg10.dtd">
<svg version="1.0" xmlns="http://www.w3.org/2000/svg"
 width="1200.000000pt" height="1200.000000pt" viewBox="0 0 1200.000000 1200.000000"
 preserveAspectRatio="xMidYMid meet">

<g transform="translate(0.000000,1200.000000) scale(0.100000,-0.100000)"
fill="#000000" stroke="none">
<path d="M1350 9734 c-297 -64 -524 -292 -584 -586 -83 -402 181 -799 586
-882 70 -14 512 -16 4648 -16 4140 0 4578 2 4648 16 405 84 669 480 586 882
-60 296 -290 526 -586 586 -70 14 -520 16 -4655 15 -3885 0 -4588 -3 -4643
-15z"/>
<path d="M1350 6734 c-297 -64 -524 -292 -584 -586 -83 -402 181 -799 586
-882 70 -14 512 -16 4648 -16 4140 0 4578 2 4648 16 405 84 669 480 586 882
-60 296 -290 526 -586 586 -70 14 -520 16 -4655 15 -3885 0 -4588 -3 -4643
-15z"/>
<path d="M1350 3734 c-297 -64 -524 -292 -584 -586 -83 -402 181 -799 586
-882 70 -14 512 -16 4648 -16 4140 0 4578 2 4648 16 405 84 669 480 586 882
-60 296 -290 526 -586 586 -70 14 -520 16 -4655 15 -3885 0 -4588 -3 -4643
-15z"/>
</g>
</svg>
